M48
; DRILL file {KiCad 7.0.7} date Wed 20 Sep 2023 07:21:21 AM EDT
; FORMAT={-:-/ absolute / inch / decimal}
; #@! TF.CreationDate,2023-09-20T07:21:21-04:00
; #@! TF.GenerationSoftware,Kicad,Pcbnew,7.0.7
; #@! TF.FileFunction,MixedPlating,1,2
FMAT,2
INCH
; #@! TA.AperFunction,Plated,PTH,ComponentDrill
T1C0.0354
; #@! TA.AperFunction,Plated,PTH,ComponentDrill
T2C0.0394
; #@! TA.AperFunction,Plated,PTH,ComponentDrill
T3C0.0433
; #@! TA.AperFunction,Plated,PTH,ComponentDrill
T4C0.0701
; #@! TA.AperFunction,NonPlated,NPTH,ComponentDrill
T5C0.1260
%
G90
G05
T1
X0.777Y-0.0974
X0.877Y-0.0974
T2
X1.5354Y-1.0138
X1.5354Y-1.1138
X1.5354Y-1.2138
T3
X0.6988Y-0.3839
X0.6988Y-0.561
X0.6988Y-0.7776
X0.6988Y-0.9547
X0.6988Y-1.1713
X0.6988Y-1.3484
X0.6988Y-1.565
X0.6988Y-1.7421
X0.9547Y-0.3839
X0.9547Y-0.561
X0.9547Y-0.7776
X0.9547Y-0.9547
X0.9547Y-1.1713
X0.9547Y-1.3484
X0.9547Y-1.565
X0.9547Y-1.7421
T4
X0.56Y-1.9685
X0.56Y-2.2685
X0.56Y-3.3484
X0.56Y-3.6484
X1.0935Y-1.9685
X1.0935Y-2.2685
X1.0935Y-3.3484
X1.0935Y-3.6484
T5
X0.1772Y-0.1772
X0.1772Y-3.6811
X1.4764Y-0.1772
X1.4764Y-3.6811
T0
M30
