%TF.GenerationSoftware,KiCad,Pcbnew,7.0.7*%
%TF.CreationDate,2023-09-20T07:21:18-04:00*%
%TF.ProjectId,lasko_ir_remote,6c61736b-6f5f-4697-925f-72656d6f7465,rev?*%
%TF.SameCoordinates,PX7b06240PY29020c0*%
%TF.FileFunction,Copper,L2,Bot*%
%TF.FilePolarity,Positive*%
%FSLAX46Y46*%
G04 Gerber Fmt 4.6, Leading zero omitted, Abs format (unit mm)*
G04 Created by KiCad (PCBNEW 7.0.7) date 2023-09-20 07:21:18*
%MOMM*%
%LPD*%
G01*
G04 APERTURE LIST*
G04 Aperture macros list*
%AMRoundRect*
0 Rectangle with rounded corners*
0 $1 Rounding radius*
0 $2 $3 $4 $5 $6 $7 $8 $9 X,Y pos of 4 corners*
0 Add a 4 corners polygon primitive as box body*
4,1,4,$2,$3,$4,$5,$6,$7,$8,$9,$2,$3,0*
0 Add four circle primitives for the rounded corners*
1,1,$1+$1,$2,$3*
1,1,$1+$1,$4,$5*
1,1,$1+$1,$6,$7*
1,1,$1+$1,$8,$9*
0 Add four rect primitives between the rounded corners*
20,1,$1+$1,$2,$3,$4,$5,0*
20,1,$1+$1,$4,$5,$6,$7,0*
20,1,$1+$1,$6,$7,$8,$9,0*
20,1,$1+$1,$8,$9,$2,$3,0*%
G04 Aperture macros list end*
%TA.AperFunction,ComponentPad*%
%ADD10C,2.000000*%
%TD*%
%TA.AperFunction,ComponentPad*%
%ADD11R,1.800000X1.800000*%
%TD*%
%TA.AperFunction,ComponentPad*%
%ADD12C,1.800000*%
%TD*%
%TA.AperFunction,ComponentPad*%
%ADD13R,1.700000X1.700000*%
%TD*%
%TA.AperFunction,ComponentPad*%
%ADD14O,1.700000X1.700000*%
%TD*%
%TA.AperFunction,ComponentPad*%
%ADD15C,3.000000*%
%TD*%
%TA.AperFunction,SMDPad,CuDef*%
%ADD16RoundRect,0.150000X-0.150000X0.825000X-0.150000X-0.825000X0.150000X-0.825000X0.150000X0.825000X0*%
%TD*%
%TA.AperFunction,SMDPad,CuDef*%
%ADD17RoundRect,0.237500X0.250000X0.237500X-0.250000X0.237500X-0.250000X-0.237500X0.250000X-0.237500X0*%
%TD*%
%TA.AperFunction,SMDPad,CuDef*%
%ADD18RoundRect,0.237500X0.237500X-0.250000X0.237500X0.250000X-0.237500X0.250000X-0.237500X-0.250000X0*%
%TD*%
%TA.AperFunction,SMDPad,CuDef*%
%ADD19RoundRect,0.237500X0.300000X0.237500X-0.300000X0.237500X-0.300000X-0.237500X0.300000X-0.237500X0*%
%TD*%
%TA.AperFunction,SMDPad,CuDef*%
%ADD20RoundRect,0.250000X-1.500000X-0.650000X1.500000X-0.650000X1.500000X0.650000X-1.500000X0.650000X0*%
%TD*%
%TA.AperFunction,SMDPad,CuDef*%
%ADD21RoundRect,0.150000X0.150000X-0.512500X0.150000X0.512500X-0.150000X0.512500X-0.150000X-0.512500X0*%
%TD*%
%TA.AperFunction,Conductor*%
%ADD22C,0.600000*%
%TD*%
%TA.AperFunction,Conductor*%
%ADD23C,5.000000*%
%TD*%
G04 APERTURE END LIST*
D10*
%TO.P,SW1,1,1*%
%TO.N,N/C*%
X17750000Y-9750000D03*
%TO.N,/BUTTON_3*%
X24250000Y-9750000D03*
%TO.P,SW1,2,2*%
%TO.N,GND*%
X17750000Y-14250000D03*
X24250000Y-14250000D03*
%TD*%
%TO.P,SW3,1,1*%
%TO.N,N/C*%
X17750000Y-29750000D03*
%TO.N,/BUTTON_1*%
X24250000Y-29750000D03*
%TO.P,SW3,2,2*%
%TO.N,GND*%
X17750000Y-34250000D03*
X24250000Y-34250000D03*
%TD*%
D11*
%TO.P,D1,1,K*%
%TO.N,Net-(D1-K)*%
X22275000Y-2475000D03*
D12*
%TO.P,D1,2,A*%
%TO.N,Net-(D1-A)*%
X19735000Y-2475000D03*
%TD*%
D13*
%TO.P,J1,1,Pin_1*%
%TO.N,VCC*%
X39000000Y-25750000D03*
D14*
%TO.P,J1,2,Pin_2*%
%TO.N,/~{RESET}*%
X39000000Y-28290000D03*
%TO.P,J1,3,Pin_3*%
%TO.N,GND*%
X39000000Y-30830000D03*
%TD*%
D10*
%TO.P,SW4,1,1*%
%TO.N,N/C*%
X17750000Y-39750000D03*
%TO.N,/BUTTON_0*%
X24250000Y-39750000D03*
%TO.P,SW4,2,2*%
%TO.N,GND*%
X17750000Y-44250000D03*
X24250000Y-44250000D03*
%TD*%
%TO.P,SW2,1,1*%
%TO.N,N/C*%
X17750000Y-19750000D03*
%TO.N,/BUTTON_2*%
X24250000Y-19750000D03*
%TO.P,SW2,2,2*%
%TO.N,GND*%
X17750000Y-24250000D03*
X24250000Y-24250000D03*
%TD*%
D15*
%TO.P,BT2,1,+*%
%TO.N,Net-(BT1--)*%
X14225000Y-57620000D03*
X14225000Y-50000000D03*
%TO.P,BT2,2,-*%
%TO.N,GND*%
X14225000Y-92670000D03*
X14225000Y-85050000D03*
%TD*%
%TO.P,BT1,1,+*%
%TO.N,VCC*%
X27775000Y-57620000D03*
X27775000Y-50000000D03*
%TO.P,BT1,2,-*%
%TO.N,Net-(BT1--)*%
X27775000Y-92670000D03*
X27775000Y-85050000D03*
%TD*%
D16*
%TO.P,U1,1,VCC*%
%TO.N,VCC*%
X32345000Y-24525000D03*
%TO.P,U1,2,PA6*%
%TO.N,/BUTTON_2*%
X33615000Y-24525000D03*
%TO.P,U1,3,PA7*%
%TO.N,/BUTTON_3*%
X34885000Y-24525000D03*
%TO.P,U1,4,PA1*%
%TO.N,/IR_CTRL*%
X36155000Y-24525000D03*
%TO.P,U1,5,PA2*%
%TO.N,/BUTTON_0*%
X36155000Y-29475000D03*
%TO.P,U1,6,~{RESET}/PA0*%
%TO.N,/~{RESET}*%
X34885000Y-29475000D03*
%TO.P,U1,7,PA3*%
%TO.N,/BUTTON_1*%
X33615000Y-29475000D03*
%TO.P,U1,8,GND*%
%TO.N,GND*%
X32345000Y-29475000D03*
%TD*%
D17*
%TO.P,R1,1*%
%TO.N,/IR_CTRL*%
X32662500Y-5000000D03*
%TO.P,R1,2*%
%TO.N,Net-(Q1-B)*%
X30837500Y-5000000D03*
%TD*%
D18*
%TO.P,R2,1*%
%TO.N,VCC*%
X15750000Y-6162500D03*
%TO.P,R2,2*%
%TO.N,Net-(D1-A)*%
X15750000Y-4337500D03*
%TD*%
D19*
%TO.P,C1,1*%
%TO.N,VCC*%
X30500000Y-24500000D03*
%TO.P,C1,2*%
%TO.N,GND*%
X28775000Y-24500000D03*
%TD*%
D20*
%TO.P,D2,1,K*%
%TO.N,VCC*%
X30750000Y-43750000D03*
%TO.P,D2,2,A*%
%TO.N,GND*%
X35750000Y-43750000D03*
%TD*%
D21*
%TO.P,Q1,1,B*%
%TO.N,Net-(Q1-B)*%
X28200000Y-4887500D03*
%TO.P,Q1,2,E*%
%TO.N,GND*%
X26300000Y-4887500D03*
%TO.P,Q1,3,C*%
%TO.N,Net-(D1-K)*%
X27250000Y-2612500D03*
%TD*%
D22*
%TO.N,VCC*%
X30500000Y-24500000D02*
X30500000Y-24723178D01*
X30500000Y-24723178D02*
X28723178Y-26500000D01*
X28723178Y-26500000D02*
X21000000Y-26500000D01*
%TO.N,/BUTTON_1*%
X33615000Y-29475000D02*
X33615000Y-28483066D01*
X33615000Y-28483066D02*
X32871934Y-27740000D01*
X32871934Y-27740000D02*
X26260000Y-27740000D01*
X26260000Y-27740000D02*
X24250000Y-29750000D01*
%TO.N,/~{RESET}*%
X34885000Y-29475000D02*
X34885000Y-28483066D01*
X34885000Y-28483066D02*
X35868066Y-27500000D01*
X35868066Y-27500000D02*
X38210000Y-27500000D01*
X38210000Y-27500000D02*
X39000000Y-28290000D01*
%TO.N,VCC*%
X39000000Y-25750000D02*
X38450000Y-26300000D01*
X38450000Y-26300000D02*
X33128066Y-26300000D01*
X33128066Y-26300000D02*
X32345000Y-25516934D01*
X32345000Y-25516934D02*
X32345000Y-24525000D01*
%TO.N,/IR_CTRL*%
X36155000Y-24525000D02*
X36155000Y-12905934D01*
X36155000Y-12905934D02*
X32662500Y-9413434D01*
X32662500Y-9413434D02*
X32662500Y-5000000D01*
%TO.N,VCC*%
X26500000Y-42000000D02*
X24000000Y-42000000D01*
X24000000Y-42000000D02*
X21000000Y-39000000D01*
X27775000Y-50000000D02*
X27775000Y-43275000D01*
X27775000Y-43275000D02*
X26500000Y-42000000D01*
X15750000Y-6162500D02*
X20162500Y-6162500D01*
X30500000Y-24500000D02*
X32320000Y-24500000D01*
X21000000Y-26500000D02*
X21000000Y-7000000D01*
X20162500Y-6162500D02*
X21000000Y-7000000D01*
X32320000Y-24500000D02*
X32345000Y-24525000D01*
X30750000Y-43750000D02*
X28250000Y-43750000D01*
X21000000Y-39000000D02*
X21000000Y-26500000D01*
X28250000Y-43750000D02*
X27775000Y-43275000D01*
%TO.N,Net-(D1-K)*%
X22275000Y-2475000D02*
X27112500Y-2475000D01*
X27112500Y-2475000D02*
X27250000Y-2612500D01*
%TO.N,Net-(D1-A)*%
X19735000Y-2475000D02*
X17612500Y-2475000D01*
X17612500Y-2475000D02*
X15750000Y-4337500D01*
%TO.N,Net-(Q1-B)*%
X30725000Y-4887500D02*
X30837500Y-5000000D01*
X28200000Y-4887500D02*
X30725000Y-4887500D01*
%TO.N,/BUTTON_0*%
X36155000Y-36095000D02*
X32500000Y-39750000D01*
X36155000Y-29475000D02*
X36155000Y-36095000D01*
X32500000Y-39750000D02*
X24250000Y-39750000D01*
%TO.N,/BUTTON_2*%
X32000000Y-19750000D02*
X24250000Y-19750000D01*
X33615000Y-21365000D02*
X32000000Y-19750000D01*
X33615000Y-24525000D02*
X33615000Y-21365000D01*
%TO.N,/BUTTON_3*%
X34885000Y-13135000D02*
X31500000Y-9750000D01*
X31500000Y-9750000D02*
X24250000Y-9750000D01*
X34885000Y-24525000D02*
X34885000Y-13135000D01*
D23*
%TO.N,Net-(BT1--)*%
X27775000Y-78025000D02*
X27775000Y-85050000D01*
X14225000Y-64475000D02*
X27775000Y-78025000D01*
X14225000Y-57620000D02*
X14225000Y-64475000D01*
%TD*%
%TA.AperFunction,Conductor*%
%TO.N,VCC*%
G36*
X31193039Y-45769685D02*
G01*
X31238794Y-45822489D01*
X31250000Y-45874000D01*
X31250000Y-61876000D01*
X31230315Y-61943039D01*
X31177511Y-61988794D01*
X31126000Y-62000000D01*
X24374000Y-62000000D01*
X24306961Y-61980315D01*
X24261206Y-61927511D01*
X24250000Y-61876000D01*
X24250000Y-57620001D01*
X25769891Y-57620001D01*
X25790300Y-57905362D01*
X25851109Y-58184895D01*
X25951091Y-58452958D01*
X26088191Y-58704038D01*
X26088196Y-58704046D01*
X26194882Y-58846561D01*
X26194883Y-58846562D01*
X26886390Y-58155055D01*
X26947713Y-58121570D01*
X27017404Y-58126554D01*
X27073338Y-58168426D01*
X27074388Y-58169849D01*
X27109958Y-58218806D01*
X27109962Y-58218811D01*
X27233746Y-58330265D01*
X27270395Y-58389751D01*
X27269065Y-58459608D01*
X27238455Y-58510096D01*
X26548436Y-59200114D01*
X26548436Y-59200115D01*
X26690960Y-59306807D01*
X26690961Y-59306808D01*
X26942042Y-59443908D01*
X26942041Y-59443908D01*
X27210104Y-59543890D01*
X27489637Y-59604699D01*
X27774999Y-59625109D01*
X27775001Y-59625109D01*
X28060362Y-59604699D01*
X28339895Y-59543890D01*
X28607958Y-59443908D01*
X28859047Y-59306803D01*
X29001561Y-59200116D01*
X29001562Y-59200115D01*
X28311544Y-58510097D01*
X28278059Y-58448774D01*
X28283043Y-58379082D01*
X28316253Y-58330266D01*
X28440037Y-58218811D01*
X28440038Y-58218809D01*
X28440042Y-58218806D01*
X28475610Y-58169849D01*
X28530937Y-58127185D01*
X28600551Y-58121205D01*
X28662346Y-58153811D01*
X28663608Y-58155055D01*
X29355115Y-58846562D01*
X29355116Y-58846561D01*
X29461803Y-58704047D01*
X29598908Y-58452958D01*
X29698890Y-58184895D01*
X29759699Y-57905362D01*
X29780109Y-57620001D01*
X29780109Y-57619998D01*
X29759699Y-57334637D01*
X29698890Y-57055104D01*
X29598908Y-56787041D01*
X29461808Y-56535961D01*
X29461807Y-56535960D01*
X29355115Y-56393436D01*
X29355114Y-56393436D01*
X28663608Y-57084943D01*
X28602285Y-57118428D01*
X28532593Y-57113444D01*
X28476660Y-57071572D01*
X28475609Y-57070148D01*
X28464679Y-57055104D01*
X28440042Y-57021194D01*
X28440039Y-57021191D01*
X28440037Y-57021188D01*
X28316252Y-56909733D01*
X28279603Y-56850247D01*
X28280933Y-56780390D01*
X28311543Y-56729902D01*
X29001562Y-56039883D01*
X29001561Y-56039882D01*
X28859046Y-55933196D01*
X28859038Y-55933191D01*
X28607957Y-55796091D01*
X28607958Y-55796091D01*
X28339895Y-55696109D01*
X28060362Y-55635300D01*
X27775001Y-55614891D01*
X27774999Y-55614891D01*
X27489637Y-55635300D01*
X27210104Y-55696109D01*
X26942041Y-55796091D01*
X26690961Y-55933191D01*
X26690953Y-55933196D01*
X26548436Y-56039882D01*
X26548436Y-56039883D01*
X27238455Y-56729902D01*
X27271940Y-56791225D01*
X27266956Y-56860917D01*
X27233747Y-56909733D01*
X27109959Y-57021192D01*
X27074390Y-57070149D01*
X27019059Y-57112815D01*
X26949446Y-57118793D01*
X26887651Y-57086187D01*
X26886391Y-57084944D01*
X26194883Y-56393436D01*
X26194882Y-56393436D01*
X26088196Y-56535953D01*
X26088191Y-56535961D01*
X25951091Y-56787041D01*
X25851109Y-57055104D01*
X25790300Y-57334637D01*
X25769891Y-57619998D01*
X25769891Y-57620001D01*
X24250000Y-57620001D01*
X24250000Y-50000001D01*
X25769891Y-50000001D01*
X25790300Y-50285362D01*
X25851109Y-50564895D01*
X25951091Y-50832958D01*
X26088191Y-51084038D01*
X26088196Y-51084046D01*
X26194882Y-51226561D01*
X26194883Y-51226562D01*
X26886390Y-50535055D01*
X26947713Y-50501570D01*
X27017404Y-50506554D01*
X27073338Y-50548426D01*
X27074388Y-50549849D01*
X27109958Y-50598806D01*
X27109962Y-50598811D01*
X27233746Y-50710265D01*
X27270395Y-50769751D01*
X27269065Y-50839608D01*
X27238455Y-50890096D01*
X26548436Y-51580114D01*
X26548436Y-51580115D01*
X26690960Y-51686807D01*
X26690961Y-51686808D01*
X26942042Y-51823908D01*
X26942041Y-51823908D01*
X27210104Y-51923890D01*
X27489637Y-51984699D01*
X27774999Y-52005109D01*
X27775001Y-52005109D01*
X28060362Y-51984699D01*
X28339895Y-51923890D01*
X28607958Y-51823908D01*
X28859047Y-51686803D01*
X29001561Y-51580116D01*
X29001562Y-51580115D01*
X28311544Y-50890097D01*
X28278059Y-50828774D01*
X28283043Y-50759082D01*
X28316253Y-50710266D01*
X28440037Y-50598811D01*
X28440038Y-50598809D01*
X28440042Y-50598806D01*
X28475610Y-50549849D01*
X28530937Y-50507185D01*
X28600551Y-50501205D01*
X28662346Y-50533811D01*
X28663608Y-50535055D01*
X29355115Y-51226562D01*
X29355116Y-51226561D01*
X29461803Y-51084047D01*
X29598908Y-50832958D01*
X29698890Y-50564895D01*
X29759699Y-50285362D01*
X29780109Y-50000001D01*
X29780109Y-49999998D01*
X29759699Y-49714637D01*
X29698890Y-49435104D01*
X29598908Y-49167041D01*
X29461808Y-48915961D01*
X29461807Y-48915960D01*
X29355115Y-48773436D01*
X29355114Y-48773436D01*
X28663608Y-49464943D01*
X28602285Y-49498428D01*
X28532593Y-49493444D01*
X28476660Y-49451572D01*
X28475609Y-49450148D01*
X28464679Y-49435104D01*
X28440042Y-49401194D01*
X28440039Y-49401191D01*
X28440037Y-49401188D01*
X28316252Y-49289733D01*
X28279603Y-49230247D01*
X28280933Y-49160390D01*
X28311543Y-49109902D01*
X29001562Y-48419883D01*
X29001561Y-48419882D01*
X28859046Y-48313196D01*
X28859038Y-48313191D01*
X28607957Y-48176091D01*
X28607958Y-48176091D01*
X28339895Y-48076109D01*
X28060362Y-48015300D01*
X27775001Y-47994891D01*
X27774999Y-47994891D01*
X27489637Y-48015300D01*
X27210104Y-48076109D01*
X26942041Y-48176091D01*
X26690961Y-48313191D01*
X26690953Y-48313196D01*
X26548436Y-48419882D01*
X26548436Y-48419883D01*
X27238455Y-49109902D01*
X27271940Y-49171225D01*
X27266956Y-49240917D01*
X27233747Y-49289733D01*
X27109959Y-49401192D01*
X27074390Y-49450149D01*
X27019059Y-49492815D01*
X26949446Y-49498793D01*
X26887651Y-49466187D01*
X26886391Y-49464944D01*
X26194883Y-48773436D01*
X26194882Y-48773436D01*
X26088196Y-48915953D01*
X26088191Y-48915961D01*
X25951091Y-49167041D01*
X25851109Y-49435104D01*
X25790300Y-49714637D01*
X25769891Y-49999998D01*
X25769891Y-50000001D01*
X24250000Y-50000001D01*
X24250000Y-45874500D01*
X24269685Y-45807461D01*
X24322489Y-45761706D01*
X24369276Y-45751527D01*
X24369226Y-45750923D01*
X24373793Y-45750544D01*
X24374000Y-45750500D01*
X24374336Y-45750500D01*
X24377815Y-45750212D01*
X24382936Y-45750000D01*
X31126000Y-45750000D01*
X31193039Y-45769685D01*
G37*
%TD.AperFunction*%
%TD*%
%TA.AperFunction,Conductor*%
%TO.N,Net-(BT1--)*%
G36*
X34443039Y-80769685D02*
G01*
X34488794Y-80822489D01*
X34500000Y-80874000D01*
X34500000Y-96875500D01*
X34480315Y-96942539D01*
X34427511Y-96988294D01*
X34376000Y-96999500D01*
X21374000Y-96999500D01*
X21306961Y-96979815D01*
X21261206Y-96927011D01*
X21250000Y-96875500D01*
X21250000Y-92670001D01*
X25769891Y-92670001D01*
X25790300Y-92955362D01*
X25851109Y-93234895D01*
X25951091Y-93502958D01*
X26088191Y-93754038D01*
X26088196Y-93754046D01*
X26194882Y-93896561D01*
X26194883Y-93896562D01*
X26886390Y-93205055D01*
X26947713Y-93171570D01*
X27017404Y-93176554D01*
X27073338Y-93218426D01*
X27074388Y-93219849D01*
X27109958Y-93268806D01*
X27109962Y-93268811D01*
X27233746Y-93380265D01*
X27270395Y-93439751D01*
X27269065Y-93509608D01*
X27238455Y-93560096D01*
X26548436Y-94250114D01*
X26548436Y-94250115D01*
X26690960Y-94356807D01*
X26690961Y-94356808D01*
X26942042Y-94493908D01*
X26942041Y-94493908D01*
X27210104Y-94593890D01*
X27489637Y-94654699D01*
X27774999Y-94675109D01*
X27775001Y-94675109D01*
X28060362Y-94654699D01*
X28339895Y-94593890D01*
X28607958Y-94493908D01*
X28859047Y-94356803D01*
X29001561Y-94250116D01*
X29001562Y-94250115D01*
X28311544Y-93560097D01*
X28278059Y-93498774D01*
X28283043Y-93429082D01*
X28316253Y-93380266D01*
X28440037Y-93268811D01*
X28440038Y-93268809D01*
X28440042Y-93268806D01*
X28475610Y-93219849D01*
X28530937Y-93177185D01*
X28600551Y-93171205D01*
X28662346Y-93203811D01*
X28663608Y-93205055D01*
X29355115Y-93896562D01*
X29355116Y-93896561D01*
X29461803Y-93754047D01*
X29598908Y-93502958D01*
X29698890Y-93234895D01*
X29759699Y-92955362D01*
X29780109Y-92670001D01*
X29780109Y-92669998D01*
X29759699Y-92384637D01*
X29698890Y-92105104D01*
X29598908Y-91837041D01*
X29461808Y-91585961D01*
X29461807Y-91585960D01*
X29355115Y-91443436D01*
X29355114Y-91443436D01*
X28663608Y-92134943D01*
X28602285Y-92168428D01*
X28532593Y-92163444D01*
X28476660Y-92121572D01*
X28475609Y-92120148D01*
X28464679Y-92105104D01*
X28440042Y-92071194D01*
X28440039Y-92071191D01*
X28440037Y-92071188D01*
X28316252Y-91959733D01*
X28279603Y-91900247D01*
X28280933Y-91830390D01*
X28311543Y-91779902D01*
X29001562Y-91089883D01*
X29001561Y-91089882D01*
X28859046Y-90983196D01*
X28859038Y-90983191D01*
X28607957Y-90846091D01*
X28607958Y-90846091D01*
X28339895Y-90746109D01*
X28060362Y-90685300D01*
X27775001Y-90664891D01*
X27774999Y-90664891D01*
X27489637Y-90685300D01*
X27210104Y-90746109D01*
X26942041Y-90846091D01*
X26690961Y-90983191D01*
X26690953Y-90983196D01*
X26548436Y-91089882D01*
X26548436Y-91089883D01*
X27238455Y-91779902D01*
X27271940Y-91841225D01*
X27266956Y-91910917D01*
X27233747Y-91959733D01*
X27109959Y-92071192D01*
X27074390Y-92120149D01*
X27019059Y-92162815D01*
X26949446Y-92168793D01*
X26887651Y-92136187D01*
X26886391Y-92134944D01*
X26194883Y-91443436D01*
X26194882Y-91443436D01*
X26088196Y-91585953D01*
X26088191Y-91585961D01*
X25951091Y-91837041D01*
X25851109Y-92105104D01*
X25790300Y-92384637D01*
X25769891Y-92669998D01*
X25769891Y-92670001D01*
X21250000Y-92670001D01*
X21250000Y-85050001D01*
X25769891Y-85050001D01*
X25790300Y-85335362D01*
X25851109Y-85614895D01*
X25951091Y-85882958D01*
X26088191Y-86134038D01*
X26088196Y-86134046D01*
X26194882Y-86276561D01*
X26194883Y-86276562D01*
X26886390Y-85585055D01*
X26947713Y-85551570D01*
X27017404Y-85556554D01*
X27073338Y-85598426D01*
X27074388Y-85599849D01*
X27109958Y-85648806D01*
X27109962Y-85648811D01*
X27233746Y-85760265D01*
X27270395Y-85819751D01*
X27269065Y-85889608D01*
X27238455Y-85940096D01*
X26548436Y-86630114D01*
X26548436Y-86630115D01*
X26690960Y-86736807D01*
X26690961Y-86736808D01*
X26942042Y-86873908D01*
X26942041Y-86873908D01*
X27210104Y-86973890D01*
X27489637Y-87034699D01*
X27774999Y-87055109D01*
X27775001Y-87055109D01*
X28060362Y-87034699D01*
X28339895Y-86973890D01*
X28607958Y-86873908D01*
X28859047Y-86736803D01*
X29001561Y-86630116D01*
X29001562Y-86630115D01*
X28311544Y-85940097D01*
X28278059Y-85878774D01*
X28283043Y-85809082D01*
X28316253Y-85760266D01*
X28440037Y-85648811D01*
X28440038Y-85648809D01*
X28440042Y-85648806D01*
X28475610Y-85599849D01*
X28530937Y-85557185D01*
X28600551Y-85551205D01*
X28662346Y-85583811D01*
X28663608Y-85585055D01*
X29355115Y-86276562D01*
X29355116Y-86276561D01*
X29461803Y-86134047D01*
X29598908Y-85882958D01*
X29698890Y-85614895D01*
X29759699Y-85335362D01*
X29780109Y-85050001D01*
X29780109Y-85049998D01*
X29759699Y-84764637D01*
X29698890Y-84485104D01*
X29598908Y-84217041D01*
X29461808Y-83965961D01*
X29461807Y-83965960D01*
X29355115Y-83823436D01*
X29355114Y-83823436D01*
X28663608Y-84514943D01*
X28602285Y-84548428D01*
X28532593Y-84543444D01*
X28476660Y-84501572D01*
X28475609Y-84500148D01*
X28464679Y-84485104D01*
X28440042Y-84451194D01*
X28440039Y-84451191D01*
X28440037Y-84451188D01*
X28316252Y-84339733D01*
X28279603Y-84280247D01*
X28280933Y-84210390D01*
X28311543Y-84159902D01*
X29001562Y-83469883D01*
X29001561Y-83469882D01*
X28859046Y-83363196D01*
X28859038Y-83363191D01*
X28607957Y-83226091D01*
X28607958Y-83226091D01*
X28339895Y-83126109D01*
X28060362Y-83065300D01*
X27775001Y-83044891D01*
X27774999Y-83044891D01*
X27489637Y-83065300D01*
X27210104Y-83126109D01*
X26942041Y-83226091D01*
X26690961Y-83363191D01*
X26690953Y-83363196D01*
X26548436Y-83469882D01*
X26548436Y-83469883D01*
X27238455Y-84159902D01*
X27271940Y-84221225D01*
X27266956Y-84290917D01*
X27233747Y-84339733D01*
X27109959Y-84451192D01*
X27074390Y-84500149D01*
X27019059Y-84542815D01*
X26949446Y-84548793D01*
X26887651Y-84516187D01*
X26886391Y-84514944D01*
X26194883Y-83823436D01*
X26194882Y-83823436D01*
X26088196Y-83965953D01*
X26088191Y-83965961D01*
X25951091Y-84217041D01*
X25851109Y-84485104D01*
X25790300Y-84764637D01*
X25769891Y-85049998D01*
X25769891Y-85050001D01*
X21250000Y-85050001D01*
X21250000Y-80874000D01*
X21269685Y-80806961D01*
X21322489Y-80761206D01*
X21374000Y-80750000D01*
X34376000Y-80750000D01*
X34443039Y-80769685D01*
G37*
%TD.AperFunction*%
%TD*%
%TA.AperFunction,Conductor*%
%TO.N,Net-(BT1--)*%
G36*
X17622185Y-45750212D02*
G01*
X17625664Y-45750500D01*
X17626000Y-45750500D01*
X17626131Y-45750538D01*
X17630774Y-45750923D01*
X17630694Y-45751878D01*
X17693039Y-45770185D01*
X17738794Y-45822989D01*
X17750000Y-45874500D01*
X17750000Y-61876000D01*
X17730315Y-61943039D01*
X17677511Y-61988794D01*
X17626000Y-62000000D01*
X10874000Y-62000000D01*
X10806961Y-61980315D01*
X10761206Y-61927511D01*
X10750000Y-61876000D01*
X10750000Y-57620001D01*
X12219891Y-57620001D01*
X12240300Y-57905362D01*
X12301109Y-58184895D01*
X12401091Y-58452958D01*
X12538191Y-58704038D01*
X12538196Y-58704046D01*
X12644882Y-58846561D01*
X12644883Y-58846562D01*
X13336390Y-58155055D01*
X13397713Y-58121570D01*
X13467404Y-58126554D01*
X13523338Y-58168426D01*
X13524388Y-58169849D01*
X13559958Y-58218806D01*
X13559962Y-58218811D01*
X13683746Y-58330265D01*
X13720395Y-58389751D01*
X13719065Y-58459608D01*
X13688455Y-58510096D01*
X12998436Y-59200114D01*
X12998436Y-59200115D01*
X13140960Y-59306807D01*
X13140961Y-59306808D01*
X13392042Y-59443908D01*
X13392041Y-59443908D01*
X13660104Y-59543890D01*
X13939637Y-59604699D01*
X14224999Y-59625109D01*
X14225001Y-59625109D01*
X14510362Y-59604699D01*
X14789895Y-59543890D01*
X15057958Y-59443908D01*
X15309047Y-59306803D01*
X15451561Y-59200116D01*
X15451562Y-59200115D01*
X14761544Y-58510097D01*
X14728059Y-58448774D01*
X14733043Y-58379082D01*
X14766253Y-58330266D01*
X14890037Y-58218811D01*
X14890038Y-58218809D01*
X14890042Y-58218806D01*
X14925610Y-58169849D01*
X14980937Y-58127185D01*
X15050551Y-58121205D01*
X15112346Y-58153811D01*
X15113608Y-58155055D01*
X15805115Y-58846562D01*
X15805116Y-58846561D01*
X15911803Y-58704047D01*
X16048908Y-58452958D01*
X16148890Y-58184895D01*
X16209699Y-57905362D01*
X16230109Y-57620001D01*
X16230109Y-57619998D01*
X16209699Y-57334637D01*
X16148890Y-57055104D01*
X16048908Y-56787041D01*
X15911808Y-56535961D01*
X15911807Y-56535960D01*
X15805115Y-56393436D01*
X15805114Y-56393436D01*
X15113608Y-57084943D01*
X15052285Y-57118428D01*
X14982593Y-57113444D01*
X14926660Y-57071572D01*
X14925609Y-57070148D01*
X14914679Y-57055104D01*
X14890042Y-57021194D01*
X14890039Y-57021191D01*
X14890037Y-57021188D01*
X14766252Y-56909733D01*
X14729603Y-56850247D01*
X14730933Y-56780390D01*
X14761543Y-56729902D01*
X15451562Y-56039883D01*
X15451561Y-56039882D01*
X15309046Y-55933196D01*
X15309038Y-55933191D01*
X15057957Y-55796091D01*
X15057958Y-55796091D01*
X14789895Y-55696109D01*
X14510362Y-55635300D01*
X14225001Y-55614891D01*
X14224999Y-55614891D01*
X13939637Y-55635300D01*
X13660104Y-55696109D01*
X13392041Y-55796091D01*
X13140961Y-55933191D01*
X13140953Y-55933196D01*
X12998436Y-56039882D01*
X12998436Y-56039883D01*
X13688455Y-56729902D01*
X13721940Y-56791225D01*
X13716956Y-56860917D01*
X13683747Y-56909733D01*
X13559959Y-57021192D01*
X13524390Y-57070149D01*
X13469059Y-57112815D01*
X13399446Y-57118793D01*
X13337651Y-57086187D01*
X13336391Y-57084944D01*
X12644883Y-56393436D01*
X12644882Y-56393436D01*
X12538196Y-56535953D01*
X12538191Y-56535961D01*
X12401091Y-56787041D01*
X12301109Y-57055104D01*
X12240300Y-57334637D01*
X12219891Y-57619998D01*
X12219891Y-57620001D01*
X10750000Y-57620001D01*
X10750000Y-50000001D01*
X12219891Y-50000001D01*
X12240300Y-50285362D01*
X12301109Y-50564895D01*
X12401091Y-50832958D01*
X12538191Y-51084038D01*
X12538196Y-51084046D01*
X12644882Y-51226561D01*
X12644883Y-51226562D01*
X13336390Y-50535055D01*
X13397713Y-50501570D01*
X13467404Y-50506554D01*
X13523338Y-50548426D01*
X13524388Y-50549849D01*
X13559958Y-50598806D01*
X13559962Y-50598811D01*
X13683746Y-50710265D01*
X13720395Y-50769751D01*
X13719065Y-50839608D01*
X13688455Y-50890096D01*
X12998436Y-51580114D01*
X12998436Y-51580115D01*
X13140960Y-51686807D01*
X13140961Y-51686808D01*
X13392042Y-51823908D01*
X13392041Y-51823908D01*
X13660104Y-51923890D01*
X13939637Y-51984699D01*
X14224999Y-52005109D01*
X14225001Y-52005109D01*
X14510362Y-51984699D01*
X14789895Y-51923890D01*
X15057958Y-51823908D01*
X15309047Y-51686803D01*
X15451561Y-51580116D01*
X15451562Y-51580115D01*
X14761544Y-50890097D01*
X14728059Y-50828774D01*
X14733043Y-50759082D01*
X14766253Y-50710266D01*
X14890037Y-50598811D01*
X14890038Y-50598809D01*
X14890042Y-50598806D01*
X14925610Y-50549849D01*
X14980937Y-50507185D01*
X15050551Y-50501205D01*
X15112346Y-50533811D01*
X15113608Y-50535055D01*
X15805115Y-51226562D01*
X15805116Y-51226561D01*
X15911803Y-51084047D01*
X16048908Y-50832958D01*
X16148890Y-50564895D01*
X16209699Y-50285362D01*
X16230109Y-50000001D01*
X16230109Y-49999998D01*
X16209699Y-49714637D01*
X16148890Y-49435104D01*
X16048908Y-49167041D01*
X15911808Y-48915961D01*
X15911807Y-48915960D01*
X15805115Y-48773436D01*
X15805114Y-48773436D01*
X15113608Y-49464943D01*
X15052285Y-49498428D01*
X14982593Y-49493444D01*
X14926660Y-49451572D01*
X14925609Y-49450148D01*
X14914679Y-49435104D01*
X14890042Y-49401194D01*
X14890039Y-49401191D01*
X14890037Y-49401188D01*
X14766252Y-49289733D01*
X14729603Y-49230247D01*
X14730933Y-49160390D01*
X14761543Y-49109902D01*
X15451562Y-48419883D01*
X15451561Y-48419882D01*
X15309046Y-48313196D01*
X15309038Y-48313191D01*
X15057957Y-48176091D01*
X15057958Y-48176091D01*
X14789895Y-48076109D01*
X14510362Y-48015300D01*
X14225001Y-47994891D01*
X14224999Y-47994891D01*
X13939637Y-48015300D01*
X13660104Y-48076109D01*
X13392041Y-48176091D01*
X13140961Y-48313191D01*
X13140953Y-48313196D01*
X12998436Y-48419882D01*
X12998436Y-48419883D01*
X13688455Y-49109902D01*
X13721940Y-49171225D01*
X13716956Y-49240917D01*
X13683747Y-49289733D01*
X13559959Y-49401192D01*
X13524390Y-49450149D01*
X13469059Y-49492815D01*
X13399446Y-49498793D01*
X13337651Y-49466187D01*
X13336391Y-49464944D01*
X12644883Y-48773436D01*
X12644882Y-48773436D01*
X12538196Y-48915953D01*
X12538191Y-48915961D01*
X12401091Y-49167041D01*
X12301109Y-49435104D01*
X12240300Y-49714637D01*
X12219891Y-49999998D01*
X12219891Y-50000001D01*
X10750000Y-50000001D01*
X10750000Y-45874000D01*
X10769685Y-45806961D01*
X10822489Y-45761206D01*
X10874000Y-45750000D01*
X17617064Y-45750000D01*
X17622185Y-45750212D01*
G37*
%TD.AperFunction*%
%TD*%
%TA.AperFunction,Conductor*%
%TO.N,GND*%
G36*
X19094459Y-1020185D02*
G01*
X19140214Y-1072989D01*
X19150158Y-1142147D01*
X19121133Y-1205703D01*
X19086437Y-1233555D01*
X18966376Y-1298528D01*
X18966365Y-1298535D01*
X18783222Y-1441081D01*
X18783219Y-1441084D01*
X18783216Y-1441086D01*
X18783216Y-1441087D01*
X18704015Y-1527123D01*
X18626019Y-1611849D01*
X18621791Y-1618321D01*
X18568645Y-1663678D01*
X18517982Y-1674500D01*
X17702694Y-1674500D01*
X17522306Y-1674500D01*
X17516388Y-1675850D01*
X17481589Y-1683791D01*
X17474735Y-1684955D01*
X17433243Y-1689632D01*
X17393839Y-1703419D01*
X17387158Y-1705344D01*
X17346435Y-1714641D01*
X17308808Y-1732759D01*
X17302385Y-1735420D01*
X17262981Y-1749210D01*
X17262975Y-1749212D01*
X17227622Y-1771425D01*
X17221536Y-1774789D01*
X17183914Y-1792907D01*
X17151268Y-1818941D01*
X17145596Y-1822965D01*
X17110239Y-1845182D01*
X17110236Y-1845185D01*
X17041930Y-1913487D01*
X17041928Y-1913492D01*
X15642239Y-3313181D01*
X15580916Y-3346666D01*
X15554559Y-3349500D01*
X15463331Y-3349500D01*
X15463312Y-3349501D01*
X15362247Y-3359825D01*
X15198484Y-3414092D01*
X15198481Y-3414093D01*
X15051648Y-3504661D01*
X14929661Y-3626648D01*
X14839093Y-3773481D01*
X14839091Y-3773486D01*
X14838424Y-3775500D01*
X14784826Y-3937247D01*
X14784826Y-3937248D01*
X14784825Y-3937248D01*
X14774500Y-4038315D01*
X14774500Y-4636669D01*
X14774501Y-4636687D01*
X14784825Y-4737752D01*
X14839092Y-4901515D01*
X14839093Y-4901518D01*
X14929661Y-5048351D01*
X15043629Y-5162319D01*
X15077114Y-5223642D01*
X15072130Y-5293334D01*
X15043629Y-5337681D01*
X14929661Y-5451648D01*
X14839093Y-5598481D01*
X14839091Y-5598486D01*
X14818577Y-5660393D01*
X14784826Y-5762247D01*
X14784826Y-5762248D01*
X14784825Y-5762248D01*
X14774500Y-5863315D01*
X14774500Y-6461669D01*
X14774501Y-6461687D01*
X14784825Y-6562752D01*
X14839092Y-6726515D01*
X14839093Y-6726518D01*
X14843672Y-6733941D01*
X14929660Y-6873350D01*
X15051650Y-6995340D01*
X15198484Y-7085908D01*
X15362247Y-7140174D01*
X15463323Y-7150500D01*
X16036676Y-7150499D01*
X16036684Y-7150498D01*
X16036687Y-7150498D01*
X16092030Y-7144844D01*
X16137753Y-7140174D01*
X16301516Y-7085908D01*
X16448350Y-6995340D01*
X16448352Y-6995338D01*
X16454013Y-6990862D01*
X16455775Y-6993091D01*
X16505694Y-6965834D01*
X16532052Y-6963000D01*
X19779560Y-6963000D01*
X19846599Y-6982685D01*
X19867241Y-6999319D01*
X20163181Y-7295259D01*
X20196666Y-7356582D01*
X20199500Y-7382940D01*
X20199500Y-26451564D01*
X20199110Y-26458502D01*
X20194435Y-26500000D01*
X20199110Y-26541496D01*
X20199500Y-26548435D01*
X20199500Y-39090191D01*
X20199501Y-39090200D01*
X20208791Y-39130908D01*
X20209955Y-39137763D01*
X20214632Y-39179259D01*
X20228420Y-39218662D01*
X20230345Y-39225345D01*
X20239639Y-39266061D01*
X20257759Y-39303688D01*
X20260421Y-39310114D01*
X20274212Y-39349525D01*
X20296422Y-39384872D01*
X20299787Y-39390959D01*
X20317910Y-39428589D01*
X20343940Y-39461229D01*
X20347966Y-39466904D01*
X20360223Y-39486410D01*
X20370184Y-39502262D01*
X20402174Y-39534252D01*
X23367841Y-42499918D01*
X23367851Y-42499929D01*
X23370183Y-42502261D01*
X23370184Y-42502262D01*
X23497738Y-42629816D01*
X23497740Y-42629817D01*
X23497741Y-42629818D01*
X23500663Y-42631654D01*
X23533103Y-42652037D01*
X23538768Y-42656057D01*
X23571414Y-42682092D01*
X23577253Y-42684903D01*
X23629114Y-42731723D01*
X23647430Y-42799149D01*
X23626386Y-42865774D01*
X23582474Y-42905680D01*
X23426765Y-42989945D01*
X23379942Y-43026388D01*
X23379942Y-43026390D01*
X23956833Y-43603280D01*
X23990318Y-43664603D01*
X23985334Y-43734294D01*
X23947408Y-43787148D01*
X23844262Y-43871064D01*
X23844258Y-43871069D01*
X23793947Y-43942343D01*
X23739204Y-43985760D01*
X23669679Y-43992689D01*
X23607444Y-43960930D01*
X23604962Y-43958515D01*
X23026564Y-43380116D01*
X22926267Y-43533632D01*
X22826412Y-43761282D01*
X22765387Y-44002261D01*
X22765385Y-44002270D01*
X22744859Y-44249994D01*
X22744859Y-44250005D01*
X22765385Y-44497729D01*
X22765387Y-44497738D01*
X22826412Y-44738717D01*
X22926266Y-44966364D01*
X23026564Y-45119882D01*
X23601482Y-44544964D01*
X23662805Y-44511479D01*
X23732496Y-44516463D01*
X23788430Y-44558334D01*
X23791514Y-44563249D01*
X23791549Y-44563225D01*
X23796441Y-44570156D01*
X23899637Y-44680651D01*
X23899638Y-44680652D01*
X23934698Y-44701973D01*
X23981749Y-44753623D01*
X23993407Y-44822513D01*
X23965970Y-44886770D01*
X23957950Y-44895601D01*
X23379942Y-45473609D01*
X23426768Y-45510055D01*
X23426770Y-45510056D01*
X23645385Y-45628364D01*
X23645388Y-45628366D01*
X23676478Y-45639039D01*
X23733494Y-45679425D01*
X23759625Y-45744224D01*
X23758954Y-45773967D01*
X23744500Y-45874500D01*
X23744500Y-48552915D01*
X23744500Y-49999998D01*
X23744500Y-51447083D01*
X23744500Y-56172915D01*
X23744500Y-57619998D01*
X23744500Y-59067083D01*
X23744500Y-61876000D01*
X23744501Y-61876009D01*
X23756052Y-61983450D01*
X23756054Y-61983462D01*
X23767260Y-62034972D01*
X23801383Y-62137497D01*
X23801386Y-62137503D01*
X23879171Y-62258537D01*
X23879179Y-62258548D01*
X23924923Y-62311340D01*
X23924926Y-62311343D01*
X23924930Y-62311347D01*
X24033664Y-62405567D01*
X24033667Y-62405568D01*
X24033668Y-62405569D01*
X24127925Y-62448616D01*
X24164541Y-62465338D01*
X24209357Y-62478497D01*
X24231575Y-62485022D01*
X24231580Y-62485023D01*
X24231584Y-62485024D01*
X24374000Y-62505500D01*
X24374003Y-62505500D01*
X31125990Y-62505500D01*
X31126000Y-62505500D01*
X31233456Y-62493947D01*
X31284967Y-62482741D01*
X31319197Y-62471347D01*
X31387497Y-62448616D01*
X31387501Y-62448613D01*
X31387504Y-62448613D01*
X31508543Y-62370825D01*
X31561347Y-62325070D01*
X31655567Y-62216336D01*
X31715338Y-62085459D01*
X31735023Y-62018420D01*
X31735024Y-62018416D01*
X31755500Y-61876000D01*
X31755500Y-45874000D01*
X31743947Y-45766544D01*
X31732741Y-45715033D01*
X31727599Y-45699584D01*
X31698616Y-45612502D01*
X31698613Y-45612496D01*
X31647950Y-45533664D01*
X31620825Y-45491457D01*
X31605360Y-45473609D01*
X31575074Y-45438657D01*
X31575071Y-45438654D01*
X31493777Y-45368211D01*
X31456003Y-45309433D01*
X31456003Y-45239563D01*
X31493778Y-45180785D01*
X31557334Y-45151761D01*
X31574976Y-45150499D01*
X32300008Y-45150499D01*
X32402797Y-45139999D01*
X32569334Y-45084814D01*
X32718656Y-44992712D01*
X32842712Y-44868656D01*
X32934814Y-44719334D01*
X32989999Y-44552797D01*
X33000500Y-44450009D01*
X33000500Y-44000000D01*
X33500001Y-44000000D01*
X33500001Y-44449986D01*
X33510494Y-44552697D01*
X33565641Y-44719119D01*
X33565643Y-44719124D01*
X33657684Y-44868345D01*
X33781654Y-44992315D01*
X33930875Y-45084356D01*
X33930880Y-45084358D01*
X34097302Y-45139505D01*
X34097309Y-45139506D01*
X34200019Y-45149999D01*
X35499999Y-45149999D01*
X35500000Y-45149998D01*
X35500000Y-44000000D01*
X36000000Y-44000000D01*
X36000000Y-45149999D01*
X37299972Y-45149999D01*
X37299986Y-45149998D01*
X37402697Y-45139505D01*
X37569119Y-45084358D01*
X37569124Y-45084356D01*
X37718345Y-44992315D01*
X37842315Y-44868345D01*
X37934356Y-44719124D01*
X37934358Y-44719119D01*
X37989505Y-44552697D01*
X37989506Y-44552690D01*
X37999999Y-44449986D01*
X38000000Y-44449973D01*
X38000000Y-44000000D01*
X36000000Y-44000000D01*
X35500000Y-44000000D01*
X33500001Y-44000000D01*
X33000500Y-44000000D01*
X33000499Y-43500000D01*
X33500000Y-43500000D01*
X35500000Y-43500000D01*
X35500000Y-42350000D01*
X36000000Y-42350000D01*
X36000000Y-43500000D01*
X37999999Y-43500000D01*
X37999999Y-43050028D01*
X37999998Y-43050013D01*
X37989505Y-42947302D01*
X37934358Y-42780880D01*
X37934356Y-42780875D01*
X37842315Y-42631654D01*
X37718345Y-42507684D01*
X37569124Y-42415643D01*
X37569119Y-42415641D01*
X37402697Y-42360494D01*
X37402690Y-42360493D01*
X37299986Y-42350000D01*
X36000000Y-42350000D01*
X35500000Y-42350000D01*
X34200028Y-42350000D01*
X34200012Y-42350001D01*
X34097302Y-42360494D01*
X33930880Y-42415641D01*
X33930875Y-42415643D01*
X33781654Y-42507684D01*
X33657684Y-42631654D01*
X33565643Y-42780875D01*
X33565641Y-42780880D01*
X33510494Y-42947302D01*
X33510493Y-42947309D01*
X33500000Y-43050013D01*
X33500000Y-43500000D01*
X33000499Y-43500000D01*
X33000499Y-43049992D01*
X32989999Y-42947203D01*
X32934814Y-42780666D01*
X32842712Y-42631344D01*
X32718656Y-42507288D01*
X32569334Y-42415186D01*
X32402797Y-42360001D01*
X32402795Y-42360000D01*
X32300010Y-42349500D01*
X29199998Y-42349500D01*
X29199981Y-42349501D01*
X29097203Y-42360000D01*
X29097200Y-42360001D01*
X28930668Y-42415185D01*
X28930663Y-42415187D01*
X28781342Y-42507289D01*
X28657288Y-42631343D01*
X28657285Y-42631347D01*
X28589357Y-42741476D01*
X28537409Y-42788201D01*
X28468447Y-42799422D01*
X28404365Y-42771579D01*
X28396138Y-42764060D01*
X27002262Y-41370184D01*
X27002259Y-41370182D01*
X26966904Y-41347966D01*
X26961229Y-41343940D01*
X26928589Y-41317910D01*
X26890959Y-41299787D01*
X26884872Y-41296422D01*
X26849525Y-41274212D01*
X26810114Y-41260421D01*
X26803688Y-41257759D01*
X26766061Y-41239639D01*
X26725345Y-41230345D01*
X26718662Y-41228420D01*
X26679259Y-41214632D01*
X26637763Y-41209955D01*
X26630908Y-41208791D01*
X26590200Y-41199501D01*
X26590196Y-41199500D01*
X26590194Y-41199500D01*
X26590191Y-41199500D01*
X25191847Y-41199500D01*
X25124808Y-41179815D01*
X25079053Y-41127011D01*
X25069109Y-41057853D01*
X25098134Y-40994297D01*
X25115678Y-40977651D01*
X25269744Y-40857738D01*
X25438164Y-40674785D01*
X25482659Y-40606679D01*
X25535806Y-40561322D01*
X25586469Y-40550500D01*
X32590194Y-40550500D01*
X32630903Y-40541208D01*
X32637760Y-40540043D01*
X32679255Y-40535368D01*
X32718680Y-40521571D01*
X32725321Y-40519658D01*
X32766061Y-40510360D01*
X32803693Y-40492236D01*
X32810105Y-40489580D01*
X32849522Y-40475789D01*
X32884889Y-40453565D01*
X32890961Y-40450209D01*
X32928587Y-40432091D01*
X32961236Y-40406052D01*
X32966895Y-40402037D01*
X33002262Y-40379816D01*
X33129816Y-40252262D01*
X36752827Y-36629251D01*
X36784816Y-36597262D01*
X36807036Y-36561896D01*
X36811054Y-36556234D01*
X36837092Y-36523586D01*
X36855211Y-36485961D01*
X36858570Y-36479881D01*
X36880789Y-36444522D01*
X36894581Y-36405107D01*
X36897244Y-36398679D01*
X36915360Y-36361061D01*
X36924658Y-36320321D01*
X36926571Y-36313680D01*
X36940368Y-36274255D01*
X36945043Y-36232760D01*
X36946208Y-36225905D01*
X36947726Y-36219249D01*
X36955500Y-36185194D01*
X36955500Y-36004805D01*
X36955500Y-29430046D01*
X36955500Y-28584306D01*
X36952598Y-28547431D01*
X36950584Y-28540500D01*
X36926934Y-28459095D01*
X36927133Y-28389226D01*
X36965075Y-28330556D01*
X37028713Y-28301712D01*
X37046010Y-28300500D01*
X37531635Y-28300500D01*
X37598674Y-28320185D01*
X37644429Y-28372989D01*
X37655163Y-28413692D01*
X37664936Y-28525403D01*
X37664938Y-28525413D01*
X37726094Y-28753655D01*
X37726096Y-28753659D01*
X37726097Y-28753663D01*
X37825964Y-28967829D01*
X37825965Y-28967830D01*
X37825967Y-28967834D01*
X37961501Y-29161395D01*
X37961506Y-29161402D01*
X38128597Y-29328493D01*
X38128603Y-29328498D01*
X38314594Y-29458730D01*
X38358219Y-29513307D01*
X38365413Y-29582805D01*
X38333890Y-29645160D01*
X38314595Y-29661880D01*
X38128922Y-29791890D01*
X38128920Y-29791891D01*
X37961891Y-29958920D01*
X37961886Y-29958926D01*
X37826400Y-30152420D01*
X37826399Y-30152422D01*
X37726570Y-30366507D01*
X37726567Y-30366513D01*
X37669364Y-30579999D01*
X37669364Y-30580000D01*
X38386653Y-30580000D01*
X38453692Y-30599685D01*
X38499447Y-30652489D01*
X38509391Y-30721647D01*
X38505631Y-30738933D01*
X38500000Y-30758111D01*
X38500000Y-30901888D01*
X38505631Y-30921067D01*
X38505630Y-30990936D01*
X38467855Y-31049714D01*
X38404299Y-31078738D01*
X38386653Y-31080000D01*
X37669364Y-31080000D01*
X37726567Y-31293486D01*
X37726570Y-31293492D01*
X37826399Y-31507578D01*
X37961894Y-31701082D01*
X38128917Y-31868105D01*
X38322421Y-32003600D01*
X38536507Y-32103429D01*
X38536516Y-32103433D01*
X38750000Y-32160634D01*
X38750000Y-31442301D01*
X38769685Y-31375262D01*
X38822489Y-31329507D01*
X38891647Y-31319563D01*
X38964237Y-31330000D01*
X38964238Y-31330000D01*
X39035762Y-31330000D01*
X39035763Y-31330000D01*
X39108353Y-31319563D01*
X39177512Y-31329507D01*
X39230315Y-31375262D01*
X39250000Y-31442301D01*
X39250000Y-32160633D01*
X39463483Y-32103433D01*
X39463492Y-32103429D01*
X39677578Y-32003600D01*
X39871082Y-31868105D01*
X40038105Y-31701082D01*
X40173600Y-31507578D01*
X40273429Y-31293492D01*
X40273432Y-31293486D01*
X40330636Y-31080000D01*
X39613347Y-31080000D01*
X39546308Y-31060315D01*
X39500553Y-31007511D01*
X39490609Y-30938353D01*
X39494369Y-30921067D01*
X39500000Y-30901888D01*
X39500000Y-30758111D01*
X39494369Y-30738933D01*
X39494370Y-30669064D01*
X39532145Y-30610286D01*
X39595701Y-30581262D01*
X39613347Y-30580000D01*
X40330636Y-30580000D01*
X40330635Y-30579999D01*
X40273432Y-30366513D01*
X40273429Y-30366507D01*
X40173600Y-30152422D01*
X40173599Y-30152420D01*
X40038113Y-29958926D01*
X40038108Y-29958920D01*
X39871078Y-29791890D01*
X39685405Y-29661879D01*
X39641780Y-29607302D01*
X39634588Y-29537804D01*
X39666110Y-29475449D01*
X39685406Y-29458730D01*
X39726371Y-29430046D01*
X39871401Y-29328495D01*
X40038495Y-29161401D01*
X40174035Y-28967830D01*
X40273903Y-28753663D01*
X40335063Y-28525408D01*
X40355659Y-28290000D01*
X40355169Y-28284405D01*
X40335063Y-28054596D01*
X40335063Y-28054592D01*
X40288626Y-27881285D01*
X40273905Y-27826344D01*
X40273904Y-27826343D01*
X40273903Y-27826337D01*
X40174035Y-27612171D01*
X40054983Y-27442147D01*
X40038496Y-27418600D01*
X39992885Y-27372989D01*
X39916567Y-27296671D01*
X39883084Y-27235351D01*
X39888068Y-27165659D01*
X39929939Y-27109725D01*
X39960915Y-27092810D01*
X40092331Y-27043796D01*
X40207546Y-26957546D01*
X40293796Y-26842331D01*
X40344091Y-26707483D01*
X40350500Y-26647873D01*
X40350499Y-24852128D01*
X40344091Y-24792517D01*
X40341904Y-24786654D01*
X40293797Y-24657671D01*
X40293793Y-24657664D01*
X40207547Y-24542455D01*
X40207544Y-24542452D01*
X40092335Y-24456206D01*
X40092328Y-24456202D01*
X39957482Y-24405908D01*
X39957483Y-24405908D01*
X39897883Y-24399501D01*
X39897881Y-24399500D01*
X39897873Y-24399500D01*
X39897864Y-24399500D01*
X38102129Y-24399500D01*
X38102123Y-24399501D01*
X38042516Y-24405908D01*
X37907671Y-24456202D01*
X37907664Y-24456206D01*
X37792455Y-24542452D01*
X37792452Y-24542455D01*
X37706206Y-24657664D01*
X37706202Y-24657671D01*
X37655908Y-24792517D01*
X37651299Y-24835395D01*
X37649501Y-24852123D01*
X37649500Y-24852135D01*
X37649500Y-25375500D01*
X37629815Y-25442539D01*
X37577011Y-25488294D01*
X37525500Y-25499500D01*
X37079500Y-25499500D01*
X37012461Y-25479815D01*
X36966706Y-25427011D01*
X36955500Y-25375500D01*
X36955500Y-12815741D01*
X36955500Y-12815740D01*
X36946207Y-12775027D01*
X36945042Y-12768167D01*
X36940368Y-12726679D01*
X36936210Y-12714796D01*
X36926576Y-12687262D01*
X36924653Y-12680589D01*
X36915360Y-12639873D01*
X36904872Y-12618095D01*
X36897239Y-12602244D01*
X36894576Y-12595815D01*
X36880789Y-12556412D01*
X36880787Y-12556409D01*
X36880787Y-12556408D01*
X36875233Y-12547571D01*
X36858569Y-12521050D01*
X36855218Y-12514988D01*
X36837092Y-12477347D01*
X36811048Y-12444689D01*
X36807032Y-12439029D01*
X36784816Y-12403672D01*
X36657262Y-12276118D01*
X33499319Y-9118175D01*
X33465834Y-9056852D01*
X33463000Y-9030494D01*
X33463000Y-5782052D01*
X33482685Y-5715013D01*
X33491281Y-5704344D01*
X33490862Y-5704013D01*
X33495338Y-5698352D01*
X33495340Y-5698350D01*
X33585908Y-5551516D01*
X33640174Y-5387753D01*
X33650500Y-5286677D01*
X33650499Y-4713324D01*
X33649437Y-4702931D01*
X33640174Y-4612247D01*
X33625433Y-4567763D01*
X35645787Y-4567763D01*
X35675413Y-4837013D01*
X35675415Y-4837024D01*
X35743926Y-5099082D01*
X35743928Y-5099088D01*
X35849870Y-5348390D01*
X35973838Y-5551518D01*
X35990979Y-5579605D01*
X35990986Y-5579615D01*
X36164253Y-5787819D01*
X36164259Y-5787824D01*
X36301629Y-5910907D01*
X36365998Y-5968582D01*
X36591910Y-6118044D01*
X36837176Y-6233020D01*
X36837183Y-6233022D01*
X36837185Y-6233023D01*
X37096557Y-6311057D01*
X37096564Y-6311058D01*
X37096569Y-6311060D01*
X37364561Y-6350500D01*
X37364566Y-6350500D01*
X37567636Y-6350500D01*
X37619133Y-6346730D01*
X37770156Y-6335677D01*
X37882758Y-6310593D01*
X38034546Y-6276782D01*
X38034548Y-6276781D01*
X38034553Y-6276780D01*
X38287558Y-6180014D01*
X38523777Y-6047441D01*
X38738177Y-5881888D01*
X38926186Y-5686881D01*
X39083799Y-5466579D01*
X39195150Y-5250000D01*
X39207649Y-5225690D01*
X39207651Y-5225684D01*
X39207656Y-5225675D01*
X39295118Y-4969305D01*
X39344319Y-4702933D01*
X39354212Y-4432235D01*
X39324586Y-4162982D01*
X39256072Y-3900912D01*
X39150130Y-3651610D01*
X39009018Y-3420390D01*
X38979896Y-3385396D01*
X38835746Y-3212180D01*
X38835740Y-3212175D01*
X38634002Y-3031418D01*
X38408092Y-2881957D01*
X38408090Y-2881956D01*
X38162824Y-2766980D01*
X38162819Y-2766978D01*
X38162814Y-2766976D01*
X37903442Y-2688942D01*
X37903428Y-2688939D01*
X37787791Y-2671921D01*
X37635439Y-2649500D01*
X37432369Y-2649500D01*
X37432364Y-2649500D01*
X37229844Y-2664323D01*
X37229831Y-2664325D01*
X36965453Y-2723217D01*
X36965446Y-2723220D01*
X36712439Y-2819987D01*
X36476226Y-2952557D01*
X36476224Y-2952558D01*
X36476223Y-2952559D01*
X36413893Y-3000688D01*
X36261822Y-3118112D01*
X36073822Y-3313109D01*
X36073816Y-3313116D01*
X35916202Y-3533419D01*
X35916199Y-3533424D01*
X35792350Y-3774309D01*
X35792343Y-3774327D01*
X35704884Y-4030685D01*
X35704881Y-4030699D01*
X35680449Y-4162975D01*
X35660232Y-4272431D01*
X35655681Y-4297068D01*
X35655680Y-4297075D01*
X35645787Y-4567763D01*
X33625433Y-4567763D01*
X33618036Y-4545440D01*
X33585908Y-4448484D01*
X33495340Y-4301650D01*
X33373350Y-4179660D01*
X33226516Y-4089092D01*
X33062753Y-4034826D01*
X33062751Y-4034825D01*
X32961678Y-4024500D01*
X32363330Y-4024500D01*
X32363312Y-4024501D01*
X32262247Y-4034825D01*
X32098484Y-4089092D01*
X32098481Y-4089093D01*
X31951648Y-4179661D01*
X31837681Y-4293629D01*
X31776358Y-4327114D01*
X31706666Y-4322130D01*
X31662319Y-4293629D01*
X31548351Y-4179661D01*
X31548351Y-4179660D01*
X31548350Y-4179660D01*
X31401516Y-4089092D01*
X31237753Y-4034826D01*
X31237751Y-4034825D01*
X31136678Y-4024500D01*
X30538330Y-4024500D01*
X30538312Y-4024501D01*
X30437247Y-4034825D01*
X30437244Y-4034826D01*
X30298791Y-4080706D01*
X30259787Y-4087000D01*
X29006149Y-4087000D01*
X28939110Y-4067315D01*
X28899417Y-4026121D01*
X28868083Y-3973138D01*
X28868076Y-3973129D01*
X28751870Y-3856923D01*
X28751862Y-3856917D01*
X28612209Y-3774327D01*
X28610398Y-3773256D01*
X28610397Y-3773255D01*
X28610396Y-3773255D01*
X28610393Y-3773254D01*
X28452573Y-3727402D01*
X28452567Y-3727401D01*
X28415696Y-3724500D01*
X28415694Y-3724500D01*
X28017895Y-3724500D01*
X27950856Y-3704815D01*
X27905101Y-3652011D01*
X27895157Y-3582853D01*
X27915671Y-3534503D01*
X27914110Y-3533580D01*
X27928698Y-3508913D01*
X28001744Y-3385398D01*
X28047598Y-3227569D01*
X28050500Y-3190694D01*
X28050500Y-2034306D01*
X28049805Y-2025480D01*
X28047598Y-1997432D01*
X28047597Y-1997426D01*
X28001745Y-1839606D01*
X28001744Y-1839603D01*
X28001744Y-1839602D01*
X27918081Y-1698135D01*
X27918079Y-1698133D01*
X27918076Y-1698129D01*
X27801870Y-1581923D01*
X27801862Y-1581917D01*
X27660396Y-1498255D01*
X27660393Y-1498254D01*
X27502573Y-1452402D01*
X27502567Y-1452401D01*
X27465696Y-1449500D01*
X27465694Y-1449500D01*
X27034306Y-1449500D01*
X27034304Y-1449500D01*
X26997432Y-1452401D01*
X26997426Y-1452402D01*
X26839606Y-1498254D01*
X26839603Y-1498255D01*
X26698137Y-1581917D01*
X26698133Y-1581920D01*
X26678043Y-1602011D01*
X26641871Y-1638182D01*
X26580551Y-1671666D01*
X26554192Y-1674500D01*
X23799499Y-1674500D01*
X23732460Y-1654815D01*
X23686705Y-1602011D01*
X23675499Y-1550500D01*
X23675499Y-1527129D01*
X23675498Y-1527123D01*
X23671492Y-1489858D01*
X23669091Y-1467517D01*
X23663453Y-1452402D01*
X23618797Y-1332671D01*
X23618793Y-1332664D01*
X23532547Y-1217455D01*
X23527273Y-1212181D01*
X23493788Y-1150858D01*
X23498772Y-1081166D01*
X23540644Y-1025233D01*
X23606108Y-1000816D01*
X23614954Y-1000500D01*
X37498471Y-1000500D01*
X37501513Y-1000575D01*
X37567131Y-1003797D01*
X37652481Y-1007990D01*
X37846607Y-1018164D01*
X37852409Y-1018745D01*
X38021733Y-1043862D01*
X38197594Y-1071716D01*
X38202929Y-1072804D01*
X38372209Y-1115206D01*
X38541341Y-1160525D01*
X38546122Y-1162018D01*
X38711894Y-1221332D01*
X38874263Y-1283660D01*
X38878543Y-1285492D01*
X38964073Y-1325944D01*
X39038476Y-1361134D01*
X39133415Y-1409508D01*
X39192992Y-1439864D01*
X39196720Y-1441928D01*
X39214195Y-1452402D01*
X39348969Y-1533182D01*
X39494262Y-1627537D01*
X39497428Y-1629736D01*
X39640323Y-1735714D01*
X39774975Y-1844752D01*
X39777594Y-1846997D01*
X39908517Y-1965658D01*
X39910721Y-1967757D01*
X40032241Y-2089277D01*
X40034340Y-2091481D01*
X40153001Y-2222404D01*
X40155246Y-2225023D01*
X40264285Y-2359676D01*
X40370262Y-2502570D01*
X40372461Y-2505736D01*
X40466822Y-2651038D01*
X40558070Y-2803278D01*
X40560133Y-2807006D01*
X40638868Y-2961529D01*
X40714506Y-3121455D01*
X40716342Y-3125746D01*
X40778672Y-3288120D01*
X40799621Y-3346666D01*
X40837970Y-3453847D01*
X40839479Y-3458678D01*
X40884793Y-3627790D01*
X40927191Y-3797056D01*
X40928286Y-3802424D01*
X40956145Y-3978317D01*
X40981250Y-4147560D01*
X40981836Y-4153416D01*
X40992011Y-4347561D01*
X40999425Y-4498488D01*
X40999500Y-4501530D01*
X40999500Y-93498469D01*
X40999425Y-93501511D01*
X40992011Y-93652438D01*
X40981836Y-93846582D01*
X40981250Y-93852438D01*
X40956145Y-94021682D01*
X40928286Y-94197574D01*
X40927191Y-94202942D01*
X40884793Y-94372209D01*
X40839479Y-94541320D01*
X40837967Y-94546163D01*
X40778672Y-94711879D01*
X40716342Y-94874252D01*
X40714507Y-94878543D01*
X40638868Y-95038470D01*
X40560133Y-95192992D01*
X40558070Y-95196720D01*
X40466822Y-95348961D01*
X40372461Y-95494262D01*
X40370262Y-95497428D01*
X40264285Y-95640323D01*
X40155245Y-95774975D01*
X40153001Y-95777594D01*
X40034340Y-95908517D01*
X40032241Y-95910721D01*
X39910721Y-96032241D01*
X39908517Y-96034340D01*
X39777594Y-96153001D01*
X39774975Y-96155245D01*
X39640323Y-96264285D01*
X39497428Y-96370262D01*
X39494262Y-96372461D01*
X39348961Y-96466822D01*
X39196720Y-96558070D01*
X39192992Y-96560133D01*
X39038470Y-96638868D01*
X38878543Y-96714507D01*
X38874252Y-96716342D01*
X38711879Y-96778672D01*
X38546163Y-96837967D01*
X38541320Y-96839479D01*
X38372209Y-96884793D01*
X38202942Y-96927191D01*
X38197574Y-96928286D01*
X38021682Y-96956145D01*
X37852438Y-96981250D01*
X37846582Y-96981836D01*
X37652438Y-96992011D01*
X37501513Y-96999425D01*
X37498470Y-96999500D01*
X35129500Y-96999500D01*
X35062461Y-96979815D01*
X35016706Y-96927011D01*
X35005500Y-96875500D01*
X35005500Y-93567763D01*
X35645787Y-93567763D01*
X35675413Y-93837013D01*
X35675415Y-93837024D01*
X35723691Y-94021682D01*
X35743928Y-94099088D01*
X35849870Y-94348390D01*
X35967614Y-94541320D01*
X35990979Y-94579605D01*
X35990986Y-94579615D01*
X36164253Y-94787819D01*
X36164259Y-94787824D01*
X36260719Y-94874252D01*
X36365998Y-94968582D01*
X36591910Y-95118044D01*
X36837176Y-95233020D01*
X36837183Y-95233022D01*
X36837185Y-95233023D01*
X37096557Y-95311057D01*
X37096564Y-95311058D01*
X37096569Y-95311060D01*
X37364561Y-95350500D01*
X37364566Y-95350500D01*
X37567636Y-95350500D01*
X37619133Y-95346730D01*
X37770156Y-95335677D01*
X37882758Y-95310593D01*
X38034546Y-95276782D01*
X38034548Y-95276781D01*
X38034553Y-95276780D01*
X38287558Y-95180014D01*
X38523777Y-95047441D01*
X38738177Y-94881888D01*
X38926186Y-94686881D01*
X39083799Y-94466579D01*
X39157787Y-94322669D01*
X39207649Y-94225690D01*
X39207651Y-94225684D01*
X39207656Y-94225675D01*
X39295118Y-93969305D01*
X39344319Y-93702933D01*
X39354212Y-93432235D01*
X39324586Y-93162982D01*
X39256072Y-92900912D01*
X39150130Y-92651610D01*
X39009018Y-92420390D01*
X38919747Y-92313119D01*
X38835746Y-92212180D01*
X38835740Y-92212175D01*
X38634002Y-92031418D01*
X38408092Y-91881957D01*
X38345182Y-91852466D01*
X38162824Y-91766980D01*
X38162819Y-91766978D01*
X38162814Y-91766976D01*
X37903442Y-91688942D01*
X37903428Y-91688939D01*
X37787791Y-91671921D01*
X37635439Y-91649500D01*
X37432369Y-91649500D01*
X37432364Y-91649500D01*
X37229844Y-91664323D01*
X37229831Y-91664325D01*
X36965453Y-91723217D01*
X36965446Y-91723220D01*
X36712439Y-91819987D01*
X36476226Y-91952557D01*
X36476224Y-91952558D01*
X36476223Y-91952559D01*
X36413893Y-92000688D01*
X36261822Y-92118112D01*
X36073822Y-92313109D01*
X36073816Y-92313116D01*
X35916202Y-92533419D01*
X35916199Y-92533424D01*
X35792350Y-92774309D01*
X35792343Y-92774327D01*
X35704884Y-93030685D01*
X35704881Y-93030699D01*
X35655681Y-93297068D01*
X35655680Y-93297075D01*
X35645787Y-93567763D01*
X35005500Y-93567763D01*
X35005500Y-80874009D01*
X35005500Y-80874000D01*
X34993947Y-80766544D01*
X34982741Y-80715033D01*
X34982637Y-80714722D01*
X34948616Y-80612502D01*
X34948613Y-80612496D01*
X34870828Y-80491462D01*
X34870825Y-80491457D01*
X34870820Y-80491451D01*
X34825076Y-80438659D01*
X34825072Y-80438656D01*
X34825070Y-80438653D01*
X34716336Y-80344433D01*
X34716333Y-80344431D01*
X34716331Y-80344430D01*
X34585465Y-80284664D01*
X34585460Y-80284662D01*
X34585459Y-80284662D01*
X34562858Y-80278025D01*
X34518425Y-80264978D01*
X34518419Y-80264976D01*
X34432966Y-80252690D01*
X34376000Y-80244500D01*
X34375998Y-80244500D01*
X30899500Y-80244500D01*
X30832461Y-80224815D01*
X30786706Y-80172011D01*
X30775500Y-80120500D01*
X30775500Y-78158716D01*
X30775736Y-78153309D01*
X30779313Y-78112426D01*
X30779314Y-78112416D01*
X30775500Y-77981342D01*
X30775500Y-77937695D01*
X30772962Y-77894120D01*
X30769148Y-77763046D01*
X30763194Y-77722409D01*
X30762647Y-77717042D01*
X30760263Y-77676077D01*
X30737497Y-77546968D01*
X30718492Y-77417221D01*
X30718492Y-77417218D01*
X30707864Y-77377556D01*
X30706695Y-77372285D01*
X30699569Y-77331864D01*
X30661969Y-77206271D01*
X30628030Y-77079609D01*
X30628028Y-77079603D01*
X30628028Y-77079602D01*
X30621253Y-77062551D01*
X30612867Y-77041443D01*
X30611101Y-77036363D01*
X30599326Y-76997029D01*
X30547394Y-76876637D01*
X30498985Y-76754785D01*
X30488330Y-76735024D01*
X30479505Y-76718656D01*
X30477146Y-76713785D01*
X30460895Y-76676109D01*
X30460886Y-76676091D01*
X30395328Y-76562541D01*
X30333106Y-76447142D01*
X30333105Y-76447141D01*
X30309556Y-76413508D01*
X30306656Y-76408957D01*
X30286130Y-76373404D01*
X30207822Y-76268219D01*
X30132628Y-76160830D01*
X30105342Y-76130168D01*
X30101925Y-76125973D01*
X30098510Y-76121387D01*
X30077412Y-76093047D01*
X29987429Y-75997670D01*
X29958408Y-75965060D01*
X29927536Y-75934187D01*
X29890345Y-75894768D01*
X29837558Y-75838817D01*
X29837550Y-75838810D01*
X29806113Y-75812431D01*
X29802134Y-75808786D01*
X17261819Y-63268471D01*
X17228334Y-63207148D01*
X17225500Y-63180790D01*
X17225500Y-62629500D01*
X17245185Y-62562461D01*
X17297989Y-62516706D01*
X17349500Y-62505500D01*
X17625990Y-62505500D01*
X17626000Y-62505500D01*
X17733456Y-62493947D01*
X17784967Y-62482741D01*
X17819197Y-62471347D01*
X17887497Y-62448616D01*
X17887501Y-62448613D01*
X17887504Y-62448613D01*
X18008543Y-62370825D01*
X18061347Y-62325070D01*
X18155567Y-62216336D01*
X18215338Y-62085459D01*
X18235023Y-62018420D01*
X18235024Y-62018416D01*
X18255500Y-61876000D01*
X18255500Y-45874500D01*
X18244086Y-45768341D01*
X18256491Y-45699584D01*
X18304101Y-45648447D01*
X18327114Y-45637806D01*
X18354607Y-45628367D01*
X18354614Y-45628364D01*
X18573228Y-45510057D01*
X18573231Y-45510055D01*
X18620056Y-45473609D01*
X18043165Y-44896718D01*
X18009680Y-44835395D01*
X18014664Y-44765703D01*
X18052588Y-44712853D01*
X18155739Y-44628934D01*
X18206052Y-44557655D01*
X18260793Y-44514239D01*
X18330318Y-44507310D01*
X18392553Y-44539068D01*
X18395037Y-44541484D01*
X18973434Y-45119882D01*
X19073731Y-44966369D01*
X19173587Y-44738717D01*
X19234612Y-44497738D01*
X19234614Y-44497729D01*
X19255141Y-44250005D01*
X19255141Y-44249994D01*
X19234614Y-44002270D01*
X19234612Y-44002261D01*
X19173587Y-43761282D01*
X19073731Y-43533630D01*
X18973434Y-43380116D01*
X18398517Y-43955034D01*
X18337194Y-43988519D01*
X18267502Y-43983535D01*
X18211569Y-43941663D01*
X18208486Y-43936750D01*
X18208451Y-43936775D01*
X18203558Y-43929843D01*
X18148661Y-43871064D01*
X18100362Y-43819348D01*
X18065300Y-43798026D01*
X18018248Y-43746374D01*
X18006591Y-43677484D01*
X18034029Y-43613227D01*
X18042048Y-43604397D01*
X18620056Y-43026389D01*
X18573229Y-42989943D01*
X18354614Y-42871635D01*
X18354603Y-42871630D01*
X18119493Y-42790916D01*
X17874293Y-42750000D01*
X17625707Y-42750000D01*
X17380506Y-42790916D01*
X17145396Y-42871630D01*
X17145390Y-42871632D01*
X16926761Y-42989949D01*
X16879942Y-43026388D01*
X16879942Y-43026390D01*
X17456833Y-43603280D01*
X17490318Y-43664603D01*
X17485334Y-43734294D01*
X17447408Y-43787148D01*
X17344262Y-43871064D01*
X17344258Y-43871069D01*
X17293947Y-43942343D01*
X17239204Y-43985760D01*
X17169679Y-43992689D01*
X17107444Y-43960930D01*
X17104962Y-43958515D01*
X16526564Y-43380116D01*
X16426267Y-43533632D01*
X16326412Y-43761282D01*
X16265387Y-44002261D01*
X16265385Y-44002270D01*
X16244859Y-44249994D01*
X16244859Y-44250005D01*
X16265385Y-44497729D01*
X16265387Y-44497738D01*
X16326412Y-44738717D01*
X16426267Y-44966367D01*
X16482657Y-45052679D01*
X16502845Y-45119569D01*
X16483664Y-45186754D01*
X16431205Y-45232904D01*
X16378848Y-45244500D01*
X10874000Y-45244500D01*
X10873991Y-45244500D01*
X10873990Y-45244501D01*
X10766549Y-45256052D01*
X10766537Y-45256054D01*
X10715027Y-45267260D01*
X10612502Y-45301383D01*
X10612496Y-45301386D01*
X10491462Y-45379171D01*
X10491451Y-45379179D01*
X10438659Y-45424923D01*
X10344433Y-45533664D01*
X10344430Y-45533668D01*
X10284664Y-45664534D01*
X10264978Y-45731575D01*
X10264976Y-45731580D01*
X10258882Y-45773967D01*
X10244500Y-45874000D01*
X10244500Y-48552915D01*
X10244500Y-49999998D01*
X10244500Y-51447083D01*
X10244500Y-56172915D01*
X10244500Y-57619998D01*
X10244500Y-59067083D01*
X10244500Y-61876000D01*
X10244501Y-61876009D01*
X10256052Y-61983450D01*
X10256054Y-61983462D01*
X10267260Y-62034972D01*
X10301383Y-62137497D01*
X10301386Y-62137503D01*
X10379171Y-62258537D01*
X10379179Y-62258548D01*
X10424923Y-62311340D01*
X10424926Y-62311343D01*
X10424930Y-62311347D01*
X10533664Y-62405567D01*
X10533667Y-62405568D01*
X10533668Y-62405569D01*
X10627925Y-62448616D01*
X10664541Y-62465338D01*
X10709357Y-62478497D01*
X10731575Y-62485022D01*
X10731580Y-62485023D01*
X10731584Y-62485024D01*
X10874000Y-62505500D01*
X11100500Y-62505500D01*
X11167539Y-62525185D01*
X11213294Y-62577989D01*
X11224500Y-62629500D01*
X11224500Y-64341283D01*
X11224264Y-64346690D01*
X11220686Y-64387573D01*
X11224500Y-64518658D01*
X11224500Y-64562302D01*
X11227037Y-64605880D01*
X11230852Y-64736954D01*
X11236802Y-64777575D01*
X11237352Y-64782958D01*
X11239738Y-64823928D01*
X11239739Y-64823935D01*
X11262502Y-64953031D01*
X11281508Y-65082782D01*
X11292131Y-65122429D01*
X11293302Y-65127710D01*
X11300431Y-65168136D01*
X11300433Y-65168142D01*
X11338036Y-65293748D01*
X11371969Y-65420385D01*
X11371972Y-65420395D01*
X11387123Y-65458532D01*
X11388899Y-65463641D01*
X11400671Y-65502965D01*
X11452610Y-65623373D01*
X11501016Y-65745218D01*
X11520494Y-65781342D01*
X11522852Y-65786212D01*
X11539111Y-65823904D01*
X11539115Y-65823912D01*
X11604671Y-65937458D01*
X11666892Y-66052856D01*
X11690436Y-66086481D01*
X11693343Y-66091043D01*
X11713868Y-66126593D01*
X11713869Y-66126596D01*
X11792177Y-66231780D01*
X11867367Y-66339164D01*
X11894652Y-66369825D01*
X11898068Y-66374018D01*
X11922588Y-66406953D01*
X12012570Y-66502329D01*
X12041590Y-66534937D01*
X12041590Y-66534938D01*
X12072463Y-66565812D01*
X12102456Y-66597601D01*
X12162442Y-66661183D01*
X12193887Y-66687568D01*
X12197875Y-66691223D01*
X24738182Y-79231530D01*
X24771666Y-79292851D01*
X24774500Y-79319209D01*
X24774500Y-80120500D01*
X24754815Y-80187539D01*
X24702011Y-80233294D01*
X24650500Y-80244500D01*
X21374000Y-80244500D01*
X21373991Y-80244500D01*
X21373990Y-80244501D01*
X21266549Y-80256052D01*
X21266537Y-80256054D01*
X21215027Y-80267260D01*
X21112502Y-80301383D01*
X21112496Y-80301386D01*
X20991462Y-80379171D01*
X20991451Y-80379179D01*
X20938659Y-80424923D01*
X20844433Y-80533664D01*
X20844430Y-80533668D01*
X20784664Y-80664534D01*
X20764978Y-80731575D01*
X20764976Y-80731580D01*
X20748595Y-80845516D01*
X20744502Y-80873990D01*
X20744500Y-80874001D01*
X20744500Y-96875500D01*
X20724815Y-96942539D01*
X20672011Y-96988294D01*
X20620500Y-96999500D01*
X4501530Y-96999500D01*
X4498488Y-96999425D01*
X4347561Y-96992011D01*
X4153416Y-96981836D01*
X4147560Y-96981250D01*
X3978317Y-96956145D01*
X3802424Y-96928286D01*
X3797056Y-96927191D01*
X3627790Y-96884793D01*
X3458678Y-96839479D01*
X3453847Y-96837970D01*
X3347307Y-96799850D01*
X3288120Y-96778672D01*
X3125746Y-96716342D01*
X3121455Y-96714506D01*
X2961529Y-96638868D01*
X2807006Y-96560133D01*
X2803278Y-96558070D01*
X2651038Y-96466822D01*
X2505736Y-96372461D01*
X2502570Y-96370262D01*
X2359676Y-96264285D01*
X2225023Y-96155246D01*
X2222404Y-96153001D01*
X2091481Y-96034340D01*
X2089277Y-96032241D01*
X1967757Y-95910721D01*
X1965658Y-95908517D01*
X1846997Y-95777594D01*
X1844752Y-95774975D01*
X1735714Y-95640323D01*
X1629736Y-95497428D01*
X1627537Y-95494262D01*
X1533177Y-95348961D01*
X1441928Y-95196720D01*
X1439864Y-95192992D01*
X1401675Y-95118042D01*
X1361131Y-95038470D01*
X1325944Y-94964073D01*
X1285492Y-94878543D01*
X1283656Y-94874252D01*
X1250479Y-94787824D01*
X1221327Y-94711879D01*
X1162018Y-94546122D01*
X1160525Y-94541341D01*
X1115206Y-94372209D01*
X1072804Y-94202929D01*
X1071716Y-94197594D01*
X1043854Y-94021682D01*
X1018745Y-93852409D01*
X1018164Y-93846607D01*
X1007989Y-93652438D01*
X1003829Y-93567763D01*
X2645787Y-93567763D01*
X2675413Y-93837013D01*
X2675415Y-93837024D01*
X2723691Y-94021682D01*
X2743928Y-94099088D01*
X2849870Y-94348390D01*
X2967614Y-94541320D01*
X2990979Y-94579605D01*
X2990986Y-94579615D01*
X3164253Y-94787819D01*
X3164259Y-94787824D01*
X3260719Y-94874252D01*
X3365998Y-94968582D01*
X3591910Y-95118044D01*
X3837176Y-95233020D01*
X3837183Y-95233022D01*
X3837185Y-95233023D01*
X4096557Y-95311057D01*
X4096564Y-95311058D01*
X4096569Y-95311060D01*
X4364561Y-95350500D01*
X4364566Y-95350500D01*
X4567636Y-95350500D01*
X4619133Y-95346730D01*
X4770156Y-95335677D01*
X4882758Y-95310593D01*
X5034546Y-95276782D01*
X5034548Y-95276781D01*
X5034553Y-95276780D01*
X5287558Y-95180014D01*
X5523777Y-95047441D01*
X5738177Y-94881888D01*
X5926186Y-94686881D01*
X6083799Y-94466579D01*
X6157787Y-94322669D01*
X6207649Y-94225690D01*
X6207651Y-94225684D01*
X6207656Y-94225675D01*
X6295118Y-93969305D01*
X6344319Y-93702933D01*
X6354212Y-93432235D01*
X6324586Y-93162982D01*
X6256072Y-92900912D01*
X6157945Y-92670001D01*
X12219891Y-92670001D01*
X12240300Y-92955362D01*
X12301109Y-93234895D01*
X12401091Y-93502958D01*
X12538191Y-93754038D01*
X12538196Y-93754046D01*
X12644882Y-93896561D01*
X12644883Y-93896562D01*
X13336390Y-93205055D01*
X13397713Y-93171570D01*
X13467404Y-93176554D01*
X13523338Y-93218426D01*
X13524388Y-93219849D01*
X13559958Y-93268806D01*
X13559962Y-93268811D01*
X13683746Y-93380265D01*
X13720395Y-93439751D01*
X13719065Y-93509608D01*
X13688455Y-93560096D01*
X12998436Y-94250114D01*
X12998436Y-94250115D01*
X13140960Y-94356807D01*
X13140961Y-94356808D01*
X13392042Y-94493908D01*
X13392041Y-94493908D01*
X13660104Y-94593890D01*
X13939637Y-94654699D01*
X14224999Y-94675109D01*
X14225001Y-94675109D01*
X14510362Y-94654699D01*
X14789895Y-94593890D01*
X15057958Y-94493908D01*
X15309047Y-94356803D01*
X15451561Y-94250116D01*
X15451562Y-94250115D01*
X14761544Y-93560097D01*
X14728059Y-93498774D01*
X14733043Y-93429082D01*
X14766253Y-93380266D01*
X14890037Y-93268811D01*
X14890038Y-93268809D01*
X14890042Y-93268806D01*
X14925610Y-93219849D01*
X14980937Y-93177185D01*
X15050551Y-93171205D01*
X15112346Y-93203811D01*
X15113608Y-93205055D01*
X15805115Y-93896562D01*
X15805116Y-93896561D01*
X15911803Y-93754047D01*
X16048908Y-93502958D01*
X16148890Y-93234895D01*
X16209699Y-92955362D01*
X16230109Y-92670001D01*
X16230109Y-92669998D01*
X16209699Y-92384637D01*
X16148890Y-92105104D01*
X16048908Y-91837041D01*
X15911808Y-91585961D01*
X15911807Y-91585960D01*
X15805115Y-91443436D01*
X15805114Y-91443436D01*
X15113608Y-92134943D01*
X15052285Y-92168428D01*
X14982593Y-92163444D01*
X14926660Y-92121572D01*
X14925609Y-92120148D01*
X14914679Y-92105104D01*
X14890042Y-92071194D01*
X14890039Y-92071191D01*
X14890037Y-92071188D01*
X14766252Y-91959733D01*
X14729603Y-91900247D01*
X14730933Y-91830390D01*
X14761543Y-91779902D01*
X15451562Y-91089883D01*
X15451561Y-91089882D01*
X15309046Y-90983196D01*
X15309038Y-90983191D01*
X15057957Y-90846091D01*
X15057958Y-90846091D01*
X14789895Y-90746109D01*
X14510362Y-90685300D01*
X14225001Y-90664891D01*
X14224999Y-90664891D01*
X13939637Y-90685300D01*
X13660104Y-90746109D01*
X13392041Y-90846091D01*
X13140961Y-90983191D01*
X13140953Y-90983196D01*
X12998436Y-91089882D01*
X12998436Y-91089883D01*
X13688455Y-91779902D01*
X13721940Y-91841225D01*
X13716956Y-91910917D01*
X13683747Y-91959733D01*
X13559959Y-92071192D01*
X13524390Y-92120149D01*
X13469059Y-92162815D01*
X13399446Y-92168793D01*
X13337651Y-92136187D01*
X13336391Y-92134944D01*
X12644883Y-91443436D01*
X12644882Y-91443436D01*
X12538196Y-91585953D01*
X12538191Y-91585961D01*
X12401091Y-91837041D01*
X12301109Y-92105104D01*
X12240300Y-92384637D01*
X12219891Y-92669998D01*
X12219891Y-92670001D01*
X6157945Y-92670001D01*
X6150130Y-92651610D01*
X6009018Y-92420390D01*
X5919747Y-92313119D01*
X5835746Y-92212180D01*
X5835740Y-92212175D01*
X5634002Y-92031418D01*
X5408092Y-91881957D01*
X5345182Y-91852466D01*
X5162824Y-91766980D01*
X5162819Y-91766978D01*
X5162814Y-91766976D01*
X4903442Y-91688942D01*
X4903428Y-91688939D01*
X4787791Y-91671921D01*
X4635439Y-91649500D01*
X4432369Y-91649500D01*
X4432364Y-91649500D01*
X4229844Y-91664323D01*
X4229831Y-91664325D01*
X3965453Y-91723217D01*
X3965446Y-91723220D01*
X3712439Y-91819987D01*
X3476226Y-91952557D01*
X3476224Y-91952558D01*
X3476223Y-91952559D01*
X3413893Y-92000688D01*
X3261822Y-92118112D01*
X3073822Y-92313109D01*
X3073816Y-92313116D01*
X2916202Y-92533419D01*
X2916199Y-92533424D01*
X2792350Y-92774309D01*
X2792343Y-92774327D01*
X2704884Y-93030685D01*
X2704881Y-93030699D01*
X2655681Y-93297068D01*
X2655680Y-93297075D01*
X2645787Y-93567763D01*
X1003829Y-93567763D01*
X1002728Y-93545346D01*
X1000575Y-93501513D01*
X1000500Y-93498471D01*
X1000500Y-85050001D01*
X12219891Y-85050001D01*
X12240300Y-85335362D01*
X12301109Y-85614895D01*
X12401091Y-85882958D01*
X12538191Y-86134038D01*
X12538196Y-86134046D01*
X12644882Y-86276561D01*
X12644883Y-86276562D01*
X13336390Y-85585055D01*
X13397713Y-85551570D01*
X13467404Y-85556554D01*
X13523338Y-85598426D01*
X13524388Y-85599849D01*
X13559958Y-85648806D01*
X13559962Y-85648811D01*
X13683746Y-85760265D01*
X13720395Y-85819751D01*
X13719065Y-85889608D01*
X13688455Y-85940096D01*
X12998436Y-86630114D01*
X12998436Y-86630115D01*
X13140960Y-86736807D01*
X13140961Y-86736808D01*
X13392042Y-86873908D01*
X13392041Y-86873908D01*
X13660104Y-86973890D01*
X13939637Y-87034699D01*
X14224999Y-87055109D01*
X14225001Y-87055109D01*
X14510362Y-87034699D01*
X14789895Y-86973890D01*
X15057958Y-86873908D01*
X15309047Y-86736803D01*
X15451561Y-86630116D01*
X15451562Y-86630115D01*
X14761544Y-85940097D01*
X14728059Y-85878774D01*
X14733043Y-85809082D01*
X14766253Y-85760266D01*
X14890037Y-85648811D01*
X14890038Y-85648809D01*
X14890042Y-85648806D01*
X14925610Y-85599849D01*
X14980937Y-85557185D01*
X15050551Y-85551205D01*
X15112346Y-85583811D01*
X15113608Y-85585055D01*
X15805115Y-86276562D01*
X15805116Y-86276561D01*
X15911803Y-86134047D01*
X16048908Y-85882958D01*
X16148890Y-85614895D01*
X16209699Y-85335362D01*
X16230109Y-85050001D01*
X16230109Y-85049998D01*
X16209699Y-84764637D01*
X16148890Y-84485104D01*
X16048908Y-84217041D01*
X15911808Y-83965961D01*
X15911807Y-83965960D01*
X15805115Y-83823436D01*
X15805114Y-83823436D01*
X15113608Y-84514943D01*
X15052285Y-84548428D01*
X14982593Y-84543444D01*
X14926660Y-84501572D01*
X14925609Y-84500148D01*
X14914679Y-84485104D01*
X14890042Y-84451194D01*
X14890039Y-84451191D01*
X14890037Y-84451188D01*
X14766252Y-84339733D01*
X14729603Y-84280247D01*
X14730933Y-84210390D01*
X14761543Y-84159902D01*
X15451562Y-83469883D01*
X15451561Y-83469882D01*
X15309046Y-83363196D01*
X15309038Y-83363191D01*
X15057957Y-83226091D01*
X15057958Y-83226091D01*
X14789895Y-83126109D01*
X14510362Y-83065300D01*
X14225001Y-83044891D01*
X14224999Y-83044891D01*
X13939637Y-83065300D01*
X13660104Y-83126109D01*
X13392041Y-83226091D01*
X13140961Y-83363191D01*
X13140953Y-83363196D01*
X12998436Y-83469882D01*
X12998436Y-83469883D01*
X13688455Y-84159902D01*
X13721940Y-84221225D01*
X13716956Y-84290917D01*
X13683747Y-84339733D01*
X13559959Y-84451192D01*
X13524390Y-84500149D01*
X13469059Y-84542815D01*
X13399446Y-84548793D01*
X13337651Y-84516187D01*
X13336391Y-84514944D01*
X12644883Y-83823436D01*
X12644882Y-83823436D01*
X12538196Y-83965953D01*
X12538191Y-83965961D01*
X12401091Y-84217041D01*
X12301109Y-84485104D01*
X12240300Y-84764637D01*
X12219891Y-85049998D01*
X12219891Y-85050001D01*
X1000500Y-85050001D01*
X1000500Y-39750005D01*
X16244357Y-39750005D01*
X16264890Y-39997812D01*
X16264892Y-39997824D01*
X16325936Y-40238881D01*
X16425826Y-40466606D01*
X16561833Y-40674782D01*
X16561836Y-40674785D01*
X16730256Y-40857738D01*
X16926491Y-41010474D01*
X17145190Y-41128828D01*
X17380386Y-41209571D01*
X17625665Y-41250500D01*
X17874335Y-41250500D01*
X18119614Y-41209571D01*
X18354810Y-41128828D01*
X18573509Y-41010474D01*
X18769744Y-40857738D01*
X18938164Y-40674785D01*
X19074173Y-40466607D01*
X19174063Y-40238881D01*
X19235108Y-39997821D01*
X19255643Y-39750000D01*
X19245104Y-39622817D01*
X19235109Y-39502187D01*
X19235107Y-39502175D01*
X19174063Y-39261118D01*
X19074173Y-39033393D01*
X18938166Y-38825217D01*
X18916557Y-38801744D01*
X18769744Y-38642262D01*
X18573509Y-38489526D01*
X18573507Y-38489525D01*
X18573506Y-38489524D01*
X18354811Y-38371172D01*
X18354802Y-38371169D01*
X18119616Y-38290429D01*
X17874335Y-38249500D01*
X17625665Y-38249500D01*
X17380383Y-38290429D01*
X17145197Y-38371169D01*
X17145188Y-38371172D01*
X16926493Y-38489524D01*
X16730257Y-38642261D01*
X16561833Y-38825217D01*
X16425826Y-39033393D01*
X16325936Y-39261118D01*
X16264892Y-39502175D01*
X16264890Y-39502187D01*
X16244357Y-39749994D01*
X16244357Y-39750005D01*
X1000500Y-39750005D01*
X1000500Y-34250005D01*
X16244859Y-34250005D01*
X16265385Y-34497729D01*
X16265387Y-34497738D01*
X16326412Y-34738717D01*
X16426266Y-34966364D01*
X16526564Y-35119882D01*
X17101482Y-34544964D01*
X17162805Y-34511479D01*
X17232496Y-34516463D01*
X17288430Y-34558334D01*
X17291514Y-34563249D01*
X17291549Y-34563225D01*
X17296441Y-34570156D01*
X17399637Y-34680651D01*
X17399638Y-34680652D01*
X17434698Y-34701973D01*
X17481749Y-34753623D01*
X17493407Y-34822513D01*
X17465970Y-34886770D01*
X17457950Y-34895601D01*
X16879942Y-35473609D01*
X16926768Y-35510055D01*
X16926770Y-35510056D01*
X17145385Y-35628364D01*
X17145396Y-35628369D01*
X17380506Y-35709083D01*
X17625707Y-35750000D01*
X17874293Y-35750000D01*
X18119493Y-35709083D01*
X18354603Y-35628369D01*
X18354614Y-35628364D01*
X18573228Y-35510057D01*
X18573231Y-35510055D01*
X18620056Y-35473609D01*
X18043165Y-34896718D01*
X18009680Y-34835395D01*
X18014664Y-34765703D01*
X18052588Y-34712853D01*
X18155739Y-34628934D01*
X18206052Y-34557655D01*
X18260793Y-34514239D01*
X18330318Y-34507310D01*
X18392553Y-34539068D01*
X18395037Y-34541484D01*
X18973434Y-35119882D01*
X19073731Y-34966369D01*
X19173587Y-34738717D01*
X19234612Y-34497738D01*
X19234614Y-34497729D01*
X19255141Y-34250005D01*
X19255141Y-34249994D01*
X19234614Y-34002270D01*
X19234612Y-34002261D01*
X19173587Y-33761282D01*
X19073731Y-33533630D01*
X18973434Y-33380116D01*
X18398517Y-33955034D01*
X18337194Y-33988519D01*
X18267502Y-33983535D01*
X18211569Y-33941663D01*
X18208486Y-33936750D01*
X18208451Y-33936775D01*
X18203558Y-33929843D01*
X18148661Y-33871064D01*
X18100362Y-33819348D01*
X18065300Y-33798026D01*
X18018248Y-33746374D01*
X18006591Y-33677484D01*
X18034029Y-33613227D01*
X18042048Y-33604397D01*
X18620056Y-33026389D01*
X18573229Y-32989943D01*
X18354614Y-32871635D01*
X18354603Y-32871630D01*
X18119493Y-32790916D01*
X17874293Y-32750000D01*
X17625707Y-32750000D01*
X17380506Y-32790916D01*
X17145396Y-32871630D01*
X17145390Y-32871632D01*
X16926761Y-32989949D01*
X16879942Y-33026388D01*
X16879942Y-33026390D01*
X17456833Y-33603280D01*
X17490318Y-33664603D01*
X17485334Y-33734294D01*
X17447408Y-33787148D01*
X17344262Y-33871064D01*
X17344258Y-33871069D01*
X17293947Y-33942343D01*
X17239204Y-33985760D01*
X17169679Y-33992689D01*
X17107444Y-33960930D01*
X17104962Y-33958515D01*
X16526564Y-33380116D01*
X16426267Y-33533632D01*
X16326412Y-33761282D01*
X16265387Y-34002261D01*
X16265385Y-34002270D01*
X16244859Y-34249994D01*
X16244859Y-34250005D01*
X1000500Y-34250005D01*
X1000500Y-29750005D01*
X16244357Y-29750005D01*
X16264890Y-29997812D01*
X16264892Y-29997824D01*
X16325936Y-30238881D01*
X16425826Y-30466606D01*
X16561833Y-30674782D01*
X16561836Y-30674785D01*
X16730256Y-30857738D01*
X16926491Y-31010474D01*
X17145190Y-31128828D01*
X17380386Y-31209571D01*
X17625665Y-31250500D01*
X17874335Y-31250500D01*
X18119614Y-31209571D01*
X18354810Y-31128828D01*
X18573509Y-31010474D01*
X18769744Y-30857738D01*
X18938164Y-30674785D01*
X19074173Y-30466607D01*
X19174063Y-30238881D01*
X19235108Y-29997821D01*
X19238331Y-29958926D01*
X19255643Y-29750005D01*
X19255643Y-29749994D01*
X19235109Y-29502187D01*
X19235107Y-29502178D01*
X19213465Y-29416714D01*
X19174063Y-29261118D01*
X19074173Y-29033393D01*
X18938166Y-28825217D01*
X18916557Y-28801744D01*
X18769744Y-28642262D01*
X18573509Y-28489526D01*
X18573507Y-28489525D01*
X18573506Y-28489524D01*
X18354811Y-28371172D01*
X18354802Y-28371169D01*
X18119616Y-28290429D01*
X17874335Y-28249500D01*
X17625665Y-28249500D01*
X17380383Y-28290429D01*
X17145197Y-28371169D01*
X17145188Y-28371172D01*
X16926493Y-28489524D01*
X16730257Y-28642261D01*
X16561833Y-28825217D01*
X16425826Y-29033393D01*
X16325936Y-29261118D01*
X16264892Y-29502175D01*
X16264890Y-29502187D01*
X16244357Y-29749994D01*
X16244357Y-29750005D01*
X1000500Y-29750005D01*
X1000500Y-24250000D01*
X16244859Y-24250000D01*
X16265385Y-24497729D01*
X16265387Y-24497738D01*
X16326412Y-24738717D01*
X16426266Y-24966364D01*
X16526564Y-25119882D01*
X17101482Y-24544964D01*
X17162805Y-24511479D01*
X17232496Y-24516463D01*
X17288430Y-24558334D01*
X17291514Y-24563249D01*
X17291549Y-24563225D01*
X17296441Y-24570156D01*
X17378173Y-24657669D01*
X17399638Y-24680652D01*
X17434698Y-24701973D01*
X17481749Y-24753623D01*
X17493407Y-24822513D01*
X17465970Y-24886770D01*
X17457950Y-24895601D01*
X16879942Y-25473609D01*
X16926768Y-25510055D01*
X16926770Y-25510056D01*
X17145385Y-25628364D01*
X17145396Y-25628369D01*
X17380506Y-25709083D01*
X17625707Y-25750000D01*
X17874293Y-25750000D01*
X18119493Y-25709083D01*
X18354603Y-25628369D01*
X18354614Y-25628364D01*
X18573228Y-25510057D01*
X18573231Y-25510055D01*
X18620056Y-25473609D01*
X18043165Y-24896718D01*
X18009680Y-24835395D01*
X18014664Y-24765703D01*
X18052588Y-24712853D01*
X18155739Y-24628934D01*
X18206052Y-24557655D01*
X18260793Y-24514239D01*
X18330318Y-24507310D01*
X18392553Y-24539068D01*
X18395037Y-24541484D01*
X18973434Y-25119882D01*
X19073731Y-24966369D01*
X19173587Y-24738717D01*
X19234612Y-24497738D01*
X19234614Y-24497729D01*
X19255141Y-24250000D01*
X19255141Y-24249994D01*
X19234614Y-24002270D01*
X19234612Y-24002261D01*
X19173587Y-23761282D01*
X19073731Y-23533630D01*
X18973434Y-23380116D01*
X18398517Y-23955034D01*
X18337194Y-23988519D01*
X18267502Y-23983535D01*
X18211569Y-23941663D01*
X18208486Y-23936750D01*
X18208451Y-23936775D01*
X18203558Y-23929843D01*
X18148661Y-23871064D01*
X18100362Y-23819348D01*
X18071777Y-23801965D01*
X18065300Y-23798026D01*
X18018248Y-23746374D01*
X18006591Y-23677484D01*
X18034029Y-23613227D01*
X18042048Y-23604397D01*
X18620056Y-23026389D01*
X18573229Y-22989943D01*
X18354614Y-22871635D01*
X18354603Y-22871630D01*
X18119493Y-22790916D01*
X17874293Y-22750000D01*
X17625707Y-22750000D01*
X17380506Y-22790916D01*
X17145396Y-22871630D01*
X17145390Y-22871632D01*
X16926761Y-22989949D01*
X16879942Y-23026388D01*
X16879942Y-23026390D01*
X17456833Y-23603280D01*
X17490318Y-23664603D01*
X17485334Y-23734294D01*
X17447408Y-23787148D01*
X17344262Y-23871064D01*
X17344258Y-23871069D01*
X17293947Y-23942343D01*
X17239204Y-23985760D01*
X17169679Y-23992689D01*
X17107444Y-23960930D01*
X17104962Y-23958515D01*
X16526564Y-23380116D01*
X16426267Y-23533632D01*
X16326412Y-23761282D01*
X16265387Y-24002261D01*
X16265385Y-24002270D01*
X16244859Y-24249994D01*
X16244859Y-24250000D01*
X1000500Y-24250000D01*
X1000500Y-19750005D01*
X16244357Y-19750005D01*
X16264890Y-19997812D01*
X16264892Y-19997824D01*
X16325936Y-20238881D01*
X16425826Y-20466606D01*
X16561833Y-20674782D01*
X16561836Y-20674785D01*
X16730256Y-20857738D01*
X16926491Y-21010474D01*
X17145190Y-21128828D01*
X17380386Y-21209571D01*
X17625665Y-21250500D01*
X17874335Y-21250500D01*
X18119614Y-21209571D01*
X18354810Y-21128828D01*
X18573509Y-21010474D01*
X18769744Y-20857738D01*
X18938164Y-20674785D01*
X19074173Y-20466607D01*
X19174063Y-20238881D01*
X19235108Y-19997821D01*
X19255643Y-19750000D01*
X19235108Y-19502179D01*
X19174063Y-19261119D01*
X19102497Y-19097966D01*
X19074173Y-19033393D01*
X18938166Y-18825217D01*
X18916557Y-18801744D01*
X18769744Y-18642262D01*
X18573509Y-18489526D01*
X18573507Y-18489525D01*
X18573506Y-18489524D01*
X18354811Y-18371172D01*
X18354802Y-18371169D01*
X18119616Y-18290429D01*
X17874335Y-18249500D01*
X17625665Y-18249500D01*
X17380383Y-18290429D01*
X17145197Y-18371169D01*
X17145188Y-18371172D01*
X16926493Y-18489524D01*
X16730257Y-18642261D01*
X16561833Y-18825217D01*
X16425826Y-19033393D01*
X16325936Y-19261118D01*
X16264892Y-19502175D01*
X16264890Y-19502187D01*
X16244357Y-19749994D01*
X16244357Y-19750005D01*
X1000500Y-19750005D01*
X1000500Y-14250005D01*
X16244859Y-14250005D01*
X16265385Y-14497729D01*
X16265387Y-14497738D01*
X16326412Y-14738717D01*
X16426266Y-14966364D01*
X16526564Y-15119882D01*
X17101482Y-14544964D01*
X17162805Y-14511479D01*
X17232496Y-14516463D01*
X17288430Y-14558334D01*
X17291514Y-14563249D01*
X17291549Y-14563225D01*
X17296441Y-14570156D01*
X17399637Y-14680651D01*
X17399638Y-14680652D01*
X17434698Y-14701973D01*
X17481749Y-14753623D01*
X17493407Y-14822513D01*
X17465970Y-14886770D01*
X17457950Y-14895601D01*
X16879942Y-15473609D01*
X16926768Y-15510055D01*
X16926770Y-15510056D01*
X17145385Y-15628364D01*
X17145396Y-15628369D01*
X17380506Y-15709083D01*
X17625707Y-15750000D01*
X17874293Y-15750000D01*
X18119493Y-15709083D01*
X18354603Y-15628369D01*
X18354614Y-15628364D01*
X18573228Y-15510057D01*
X18573231Y-15510055D01*
X18620056Y-15473609D01*
X18043165Y-14896718D01*
X18009680Y-14835395D01*
X18014664Y-14765703D01*
X18052588Y-14712853D01*
X18155739Y-14628934D01*
X18206052Y-14557655D01*
X18260793Y-14514239D01*
X18330318Y-14507310D01*
X18392553Y-14539068D01*
X18395037Y-14541484D01*
X18973434Y-15119882D01*
X19073731Y-14966369D01*
X19173587Y-14738717D01*
X19234612Y-14497738D01*
X19234614Y-14497729D01*
X19255141Y-14250005D01*
X19255141Y-14249994D01*
X19234614Y-14002270D01*
X19234612Y-14002261D01*
X19173587Y-13761282D01*
X19073731Y-13533630D01*
X18973434Y-13380116D01*
X18398517Y-13955034D01*
X18337194Y-13988519D01*
X18267502Y-13983535D01*
X18211569Y-13941663D01*
X18208486Y-13936750D01*
X18208451Y-13936775D01*
X18203558Y-13929843D01*
X18148661Y-13871064D01*
X18100362Y-13819348D01*
X18065300Y-13798026D01*
X18018248Y-13746374D01*
X18006591Y-13677484D01*
X18034029Y-13613227D01*
X18042048Y-13604397D01*
X18620056Y-13026389D01*
X18573229Y-12989943D01*
X18354614Y-12871635D01*
X18354603Y-12871630D01*
X18119493Y-12790916D01*
X17874293Y-12750000D01*
X17625707Y-12750000D01*
X17380506Y-12790916D01*
X17145396Y-12871630D01*
X17145390Y-12871632D01*
X16926761Y-12989949D01*
X16879942Y-13026388D01*
X16879942Y-13026390D01*
X17456833Y-13603280D01*
X17490318Y-13664603D01*
X17485334Y-13734294D01*
X17447408Y-13787148D01*
X17344262Y-13871064D01*
X17344258Y-13871069D01*
X17293947Y-13942343D01*
X17239204Y-13985760D01*
X17169679Y-13992689D01*
X17107444Y-13960930D01*
X17104962Y-13958515D01*
X16526564Y-13380116D01*
X16426267Y-13533632D01*
X16326412Y-13761282D01*
X16265387Y-14002261D01*
X16265385Y-14002270D01*
X16244859Y-14249994D01*
X16244859Y-14250005D01*
X1000500Y-14250005D01*
X1000500Y-9750005D01*
X16244357Y-9750005D01*
X16264890Y-9997812D01*
X16264892Y-9997824D01*
X16325936Y-10238881D01*
X16425826Y-10466606D01*
X16561833Y-10674782D01*
X16561836Y-10674785D01*
X16730256Y-10857738D01*
X16926491Y-11010474D01*
X17145190Y-11128828D01*
X17380386Y-11209571D01*
X17625665Y-11250500D01*
X17874335Y-11250500D01*
X18119614Y-11209571D01*
X18354810Y-11128828D01*
X18573509Y-11010474D01*
X18769744Y-10857738D01*
X18938164Y-10674785D01*
X19074173Y-10466607D01*
X19174063Y-10238881D01*
X19235108Y-9997821D01*
X19255643Y-9750000D01*
X19235108Y-9502179D01*
X19174063Y-9261119D01*
X19074173Y-9033393D01*
X19037038Y-8976553D01*
X18938166Y-8825217D01*
X18916557Y-8801744D01*
X18769744Y-8642262D01*
X18573509Y-8489526D01*
X18573507Y-8489525D01*
X18573506Y-8489524D01*
X18354811Y-8371172D01*
X18354802Y-8371169D01*
X18119616Y-8290429D01*
X17874335Y-8249500D01*
X17625665Y-8249500D01*
X17380383Y-8290429D01*
X17145197Y-8371169D01*
X17145188Y-8371172D01*
X16926493Y-8489524D01*
X16730257Y-8642261D01*
X16561833Y-8825217D01*
X16425826Y-9033393D01*
X16325936Y-9261118D01*
X16264892Y-9502175D01*
X16264890Y-9502187D01*
X16244357Y-9749994D01*
X16244357Y-9750005D01*
X1000500Y-9750005D01*
X1000500Y-4567763D01*
X2645787Y-4567763D01*
X2675413Y-4837013D01*
X2675415Y-4837024D01*
X2743926Y-5099082D01*
X2743928Y-5099088D01*
X2849870Y-5348390D01*
X2973838Y-5551518D01*
X2990979Y-5579605D01*
X2990986Y-5579615D01*
X3164253Y-5787819D01*
X3164259Y-5787824D01*
X3301629Y-5910907D01*
X3365998Y-5968582D01*
X3591910Y-6118044D01*
X3837176Y-6233020D01*
X3837183Y-6233022D01*
X3837185Y-6233023D01*
X4096557Y-6311057D01*
X4096564Y-6311058D01*
X4096569Y-6311060D01*
X4364561Y-6350500D01*
X4364566Y-6350500D01*
X4567636Y-6350500D01*
X4619133Y-6346730D01*
X4770156Y-6335677D01*
X4882758Y-6310593D01*
X5034546Y-6276782D01*
X5034548Y-6276781D01*
X5034553Y-6276780D01*
X5287558Y-6180014D01*
X5523777Y-6047441D01*
X5738177Y-5881888D01*
X5926186Y-5686881D01*
X6083799Y-5466579D01*
X6195150Y-5250000D01*
X6207649Y-5225690D01*
X6207651Y-5225684D01*
X6207656Y-5225675D01*
X6295118Y-4969305D01*
X6344319Y-4702933D01*
X6354212Y-4432235D01*
X6324586Y-4162982D01*
X6256072Y-3900912D01*
X6150130Y-3651610D01*
X6009018Y-3420390D01*
X5979896Y-3385396D01*
X5835746Y-3212180D01*
X5835740Y-3212175D01*
X5634002Y-3031418D01*
X5408092Y-2881957D01*
X5408090Y-2881956D01*
X5162824Y-2766980D01*
X5162819Y-2766978D01*
X5162814Y-2766976D01*
X4903442Y-2688942D01*
X4903428Y-2688939D01*
X4787791Y-2671921D01*
X4635439Y-2649500D01*
X4432369Y-2649500D01*
X4432364Y-2649500D01*
X4229844Y-2664323D01*
X4229831Y-2664325D01*
X3965453Y-2723217D01*
X3965446Y-2723220D01*
X3712439Y-2819987D01*
X3476226Y-2952557D01*
X3476224Y-2952558D01*
X3476223Y-2952559D01*
X3413893Y-3000688D01*
X3261822Y-3118112D01*
X3073822Y-3313109D01*
X3073816Y-3313116D01*
X2916202Y-3533419D01*
X2916199Y-3533424D01*
X2792350Y-3774309D01*
X2792343Y-3774327D01*
X2704884Y-4030685D01*
X2704881Y-4030699D01*
X2680449Y-4162975D01*
X2660232Y-4272431D01*
X2655681Y-4297068D01*
X2655680Y-4297075D01*
X2645787Y-4567763D01*
X1000500Y-4567763D01*
X1000500Y-4501527D01*
X1000575Y-4498485D01*
X1007988Y-4347571D01*
X1009060Y-4327114D01*
X1018164Y-4153388D01*
X1018744Y-4147594D01*
X1043858Y-3978287D01*
X1071717Y-3802396D01*
X1072801Y-3797083D01*
X1115210Y-3627776D01*
X1160529Y-3458644D01*
X1162013Y-3453891D01*
X1221338Y-3288089D01*
X1283668Y-3125717D01*
X1285492Y-3121455D01*
X1287073Y-3118112D01*
X1361145Y-2961499D01*
X1439877Y-2806982D01*
X1441915Y-2803299D01*
X1533192Y-2651013D01*
X1627560Y-2505701D01*
X1629724Y-2502586D01*
X1735718Y-2359670D01*
X1844785Y-2224983D01*
X1846970Y-2222434D01*
X1965703Y-2091433D01*
X1967717Y-2089318D01*
X2089318Y-1967717D01*
X2091433Y-1965703D01*
X2222434Y-1846970D01*
X2224983Y-1844785D01*
X2359656Y-1735728D01*
X2502586Y-1629724D01*
X2505701Y-1627560D01*
X2651013Y-1533192D01*
X2803299Y-1441915D01*
X2806982Y-1439877D01*
X2961499Y-1361145D01*
X3121462Y-1285488D01*
X3125717Y-1283668D01*
X3288089Y-1221338D01*
X3453891Y-1162013D01*
X3458644Y-1160529D01*
X3627776Y-1115210D01*
X3797083Y-1072801D01*
X3802396Y-1071717D01*
X3978287Y-1043858D01*
X4147594Y-1018744D01*
X4153388Y-1018164D01*
X4347421Y-1007995D01*
X4445332Y-1003185D01*
X4498487Y-1000575D01*
X4501529Y-1000500D01*
X19027420Y-1000500D01*
X19094459Y-1020185D01*
G37*
%TD.AperFunction*%
%TA.AperFunction,Conductor*%
G36*
X26184099Y-42820185D02*
G01*
X26204741Y-42836819D01*
X26938181Y-43570259D01*
X26971666Y-43631582D01*
X26974500Y-43657940D01*
X26974500Y-45120500D01*
X26954815Y-45187539D01*
X26902011Y-45233294D01*
X26850500Y-45244500D01*
X25621152Y-45244500D01*
X25554113Y-45224815D01*
X25508358Y-45172011D01*
X25498414Y-45102853D01*
X25517343Y-45052679D01*
X25573732Y-44966367D01*
X25673587Y-44738717D01*
X25734612Y-44497738D01*
X25734614Y-44497729D01*
X25755141Y-44250005D01*
X25755141Y-44249994D01*
X25734614Y-44002270D01*
X25734612Y-44002261D01*
X25673587Y-43761282D01*
X25573731Y-43533630D01*
X25473434Y-43380116D01*
X24898517Y-43955034D01*
X24837194Y-43988519D01*
X24767502Y-43983535D01*
X24711569Y-43941663D01*
X24708486Y-43936750D01*
X24708451Y-43936775D01*
X24703558Y-43929843D01*
X24648661Y-43871064D01*
X24600362Y-43819348D01*
X24565300Y-43798026D01*
X24518248Y-43746374D01*
X24506591Y-43677484D01*
X24534029Y-43613227D01*
X24542048Y-43604397D01*
X25120056Y-43026389D01*
X25114873Y-43022355D01*
X25074059Y-42965645D01*
X25070384Y-42895872D01*
X25105014Y-42835189D01*
X25166955Y-42802860D01*
X25191034Y-42800500D01*
X26117060Y-42800500D01*
X26184099Y-42820185D01*
G37*
%TD.AperFunction*%
%TA.AperFunction,Conductor*%
G36*
X25335099Y-27320185D02*
G01*
X25380854Y-27372989D01*
X25390798Y-27442147D01*
X25361773Y-27505703D01*
X25355741Y-27512181D01*
X24628649Y-28239271D01*
X24567326Y-28272756D01*
X24520559Y-28273899D01*
X24374335Y-28249500D01*
X24125665Y-28249500D01*
X23880383Y-28290429D01*
X23645197Y-28371169D01*
X23645188Y-28371172D01*
X23426493Y-28489524D01*
X23230257Y-28642261D01*
X23061833Y-28825217D01*
X22925826Y-29033393D01*
X22825936Y-29261118D01*
X22764892Y-29502175D01*
X22764890Y-29502187D01*
X22744357Y-29749994D01*
X22744357Y-29750005D01*
X22764890Y-29997812D01*
X22764892Y-29997824D01*
X22825936Y-30238881D01*
X22925826Y-30466606D01*
X23061833Y-30674782D01*
X23061836Y-30674785D01*
X23230256Y-30857738D01*
X23426491Y-31010474D01*
X23645190Y-31128828D01*
X23880386Y-31209571D01*
X24125665Y-31250500D01*
X24374335Y-31250500D01*
X24619614Y-31209571D01*
X24854810Y-31128828D01*
X25073509Y-31010474D01*
X25269744Y-30857738D01*
X25438164Y-30674785D01*
X25574173Y-30466607D01*
X25674063Y-30238881D01*
X25735108Y-29997821D01*
X25738331Y-29958926D01*
X25755643Y-29750005D01*
X25755643Y-29749994D01*
X25753572Y-29725000D01*
X31545000Y-29725000D01*
X31545000Y-30365644D01*
X31547899Y-30402489D01*
X31547900Y-30402495D01*
X31593716Y-30560193D01*
X31593717Y-30560196D01*
X31677314Y-30701552D01*
X31677321Y-30701561D01*
X31793438Y-30817678D01*
X31793447Y-30817685D01*
X31934801Y-30901281D01*
X32092514Y-30947100D01*
X32092511Y-30947100D01*
X32094998Y-30947295D01*
X32095000Y-30947295D01*
X32095000Y-29725000D01*
X31545000Y-29725000D01*
X25753572Y-29725000D01*
X25735109Y-29502193D01*
X25735108Y-29502179D01*
X25731145Y-29486530D01*
X25733766Y-29416714D01*
X25763666Y-29368410D01*
X26555258Y-28576819D01*
X26616582Y-28543334D01*
X26642940Y-28540500D01*
X31421000Y-28540500D01*
X31488039Y-28560185D01*
X31533794Y-28612989D01*
X31545000Y-28664500D01*
X31545000Y-29225000D01*
X32471000Y-29225000D01*
X32538039Y-29244685D01*
X32583794Y-29297489D01*
X32595000Y-29349000D01*
X32595000Y-30947295D01*
X32595001Y-30947295D01*
X32597486Y-30947100D01*
X32755198Y-30901281D01*
X32896550Y-30817686D01*
X32902717Y-30812903D01*
X32904630Y-30815369D01*
X32953222Y-30788802D01*
X33022917Y-30793749D01*
X33055762Y-30814853D01*
X33056969Y-30813298D01*
X33063132Y-30818078D01*
X33063135Y-30818081D01*
X33204602Y-30901744D01*
X33246224Y-30913836D01*
X33362426Y-30947597D01*
X33362429Y-30947597D01*
X33362431Y-30947598D01*
X33374722Y-30948565D01*
X33399304Y-30950500D01*
X33399306Y-30950500D01*
X33830696Y-30950500D01*
X33849131Y-30949049D01*
X33867569Y-30947598D01*
X33867571Y-30947597D01*
X33867573Y-30947597D01*
X33958888Y-30921067D01*
X34025398Y-30901744D01*
X34166865Y-30818081D01*
X34166868Y-30818077D01*
X34173026Y-30813301D01*
X34174927Y-30815752D01*
X34223579Y-30789154D01*
X34293274Y-30794103D01*
X34325700Y-30814942D01*
X34326974Y-30813301D01*
X34333139Y-30818084D01*
X34400192Y-30857738D01*
X34474602Y-30901744D01*
X34516224Y-30913836D01*
X34632426Y-30947597D01*
X34632429Y-30947597D01*
X34632431Y-30947598D01*
X34644722Y-30948565D01*
X34669304Y-30950500D01*
X34669306Y-30950500D01*
X35100696Y-30950500D01*
X35119131Y-30949049D01*
X35137569Y-30947598D01*
X35137571Y-30947597D01*
X35137573Y-30947597D01*
X35195905Y-30930650D01*
X35265774Y-30930849D01*
X35324444Y-30968791D01*
X35353288Y-31032429D01*
X35354500Y-31049726D01*
X35354500Y-35712060D01*
X35334815Y-35779099D01*
X35318181Y-35799741D01*
X32204741Y-38913181D01*
X32143418Y-38946666D01*
X32117060Y-38949500D01*
X25586469Y-38949500D01*
X25519430Y-38929815D01*
X25482660Y-38893321D01*
X25438166Y-38825217D01*
X25416557Y-38801744D01*
X25269744Y-38642262D01*
X25073509Y-38489526D01*
X25073507Y-38489525D01*
X25073506Y-38489524D01*
X24854811Y-38371172D01*
X24854802Y-38371169D01*
X24619616Y-38290429D01*
X24374335Y-38249500D01*
X24125665Y-38249500D01*
X23880383Y-38290429D01*
X23645197Y-38371169D01*
X23645188Y-38371172D01*
X23426493Y-38489524D01*
X23230257Y-38642261D01*
X23061833Y-38825217D01*
X22925826Y-39033393D01*
X22825937Y-39261117D01*
X22792068Y-39394863D01*
X22756528Y-39455018D01*
X22694107Y-39486410D01*
X22624624Y-39479072D01*
X22584181Y-39452103D01*
X21836819Y-38704741D01*
X21803334Y-38643418D01*
X21800500Y-38617060D01*
X21800500Y-34250005D01*
X22744859Y-34250005D01*
X22765385Y-34497729D01*
X22765387Y-34497738D01*
X22826412Y-34738717D01*
X22926266Y-34966364D01*
X23026564Y-35119882D01*
X23601482Y-34544964D01*
X23662805Y-34511479D01*
X23732496Y-34516463D01*
X23788430Y-34558334D01*
X23791514Y-34563249D01*
X23791549Y-34563225D01*
X23796441Y-34570156D01*
X23899637Y-34680651D01*
X23899638Y-34680652D01*
X23934698Y-34701973D01*
X23981749Y-34753623D01*
X23993407Y-34822513D01*
X23965970Y-34886770D01*
X23957950Y-34895601D01*
X23379942Y-35473609D01*
X23426768Y-35510055D01*
X23426770Y-35510056D01*
X23645385Y-35628364D01*
X23645396Y-35628369D01*
X23880506Y-35709083D01*
X24125707Y-35750000D01*
X24374293Y-35750000D01*
X24619493Y-35709083D01*
X24854603Y-35628369D01*
X24854614Y-35628364D01*
X25073228Y-35510057D01*
X25073231Y-35510055D01*
X25120056Y-35473609D01*
X24543165Y-34896718D01*
X24509680Y-34835395D01*
X24514664Y-34765703D01*
X24552588Y-34712853D01*
X24655739Y-34628934D01*
X24706052Y-34557655D01*
X24760793Y-34514239D01*
X24830318Y-34507310D01*
X24892553Y-34539068D01*
X24895037Y-34541484D01*
X25473434Y-35119882D01*
X25573731Y-34966369D01*
X25673587Y-34738717D01*
X25734612Y-34497738D01*
X25734614Y-34497729D01*
X25755141Y-34250005D01*
X25755141Y-34249994D01*
X25734614Y-34002270D01*
X25734612Y-34002261D01*
X25673587Y-33761282D01*
X25573731Y-33533630D01*
X25473434Y-33380116D01*
X24898517Y-33955034D01*
X24837194Y-33988519D01*
X24767502Y-33983535D01*
X24711569Y-33941663D01*
X24708486Y-33936750D01*
X24708451Y-33936775D01*
X24703558Y-33929843D01*
X24648661Y-33871064D01*
X24600362Y-33819348D01*
X24565300Y-33798026D01*
X24518248Y-33746374D01*
X24506591Y-33677484D01*
X24534029Y-33613227D01*
X24542048Y-33604397D01*
X25120056Y-33026389D01*
X25073229Y-32989943D01*
X24854614Y-32871635D01*
X24854603Y-32871630D01*
X24619493Y-32790916D01*
X24374293Y-32750000D01*
X24125707Y-32750000D01*
X23880506Y-32790916D01*
X23645396Y-32871630D01*
X23645390Y-32871632D01*
X23426761Y-32989949D01*
X23379942Y-33026388D01*
X23379942Y-33026390D01*
X23956833Y-33603280D01*
X23990318Y-33664603D01*
X23985334Y-33734294D01*
X23947408Y-33787148D01*
X23844262Y-33871064D01*
X23844258Y-33871069D01*
X23793947Y-33942343D01*
X23739204Y-33985760D01*
X23669679Y-33992689D01*
X23607444Y-33960930D01*
X23604962Y-33958515D01*
X23026564Y-33380116D01*
X22926267Y-33533632D01*
X22826412Y-33761282D01*
X22765387Y-34002261D01*
X22765385Y-34002270D01*
X22744859Y-34249994D01*
X22744859Y-34250005D01*
X21800500Y-34250005D01*
X21800500Y-27424500D01*
X21820185Y-27357461D01*
X21872989Y-27311706D01*
X21924500Y-27300500D01*
X25268060Y-27300500D01*
X25335099Y-27320185D01*
G37*
%TD.AperFunction*%
%TA.AperFunction,Conductor*%
G36*
X18585021Y-3295185D02*
G01*
X18621791Y-3331679D01*
X18626021Y-3338153D01*
X18783216Y-3508913D01*
X18783219Y-3508915D01*
X18783222Y-3508918D01*
X18966365Y-3651464D01*
X18966371Y-3651468D01*
X18966374Y-3651470D01*
X19170497Y-3761936D01*
X19210008Y-3775500D01*
X19390015Y-3837297D01*
X19390017Y-3837297D01*
X19390019Y-3837298D01*
X19618951Y-3875500D01*
X19618952Y-3875500D01*
X19851048Y-3875500D01*
X19851049Y-3875500D01*
X20079981Y-3837298D01*
X20299503Y-3761936D01*
X20503626Y-3651470D01*
X20535518Y-3626648D01*
X20646212Y-3540491D01*
X20686784Y-3508913D01*
X20695130Y-3499846D01*
X20755010Y-3463854D01*
X20824849Y-3465949D01*
X20882468Y-3505469D01*
X20902544Y-3540491D01*
X20931203Y-3617330D01*
X20931206Y-3617335D01*
X21017452Y-3732544D01*
X21017455Y-3732547D01*
X21132664Y-3818793D01*
X21132671Y-3818797D01*
X21267517Y-3869091D01*
X21267516Y-3869091D01*
X21274444Y-3869835D01*
X21327127Y-3875500D01*
X23222872Y-3875499D01*
X23282483Y-3869091D01*
X23417331Y-3818796D01*
X23532546Y-3732546D01*
X23618796Y-3617331D01*
X23669091Y-3482483D01*
X23675500Y-3422873D01*
X23675500Y-3399499D01*
X23695185Y-3332461D01*
X23747989Y-3286706D01*
X23799500Y-3275500D01*
X26373226Y-3275500D01*
X26440265Y-3295185D01*
X26486020Y-3347989D01*
X26492303Y-3364907D01*
X26498254Y-3385393D01*
X26498256Y-3385398D01*
X26535681Y-3448681D01*
X26581917Y-3526862D01*
X26586702Y-3533031D01*
X26585018Y-3534336D01*
X26613246Y-3586031D01*
X26608262Y-3655723D01*
X26576234Y-3703461D01*
X26550000Y-3727702D01*
X26550000Y-4637500D01*
X27100000Y-4637500D01*
X27100000Y-4309356D01*
X27097100Y-4272510D01*
X27097099Y-4272504D01*
X27051283Y-4114806D01*
X27051282Y-4114803D01*
X26963712Y-3966729D01*
X26965433Y-3965711D01*
X26943743Y-3910455D01*
X26957428Y-3841938D01*
X27005983Y-3791697D01*
X27067258Y-3775500D01*
X27432105Y-3775500D01*
X27499144Y-3795185D01*
X27544899Y-3847989D01*
X27554843Y-3917147D01*
X27534328Y-3965496D01*
X27535890Y-3966420D01*
X27448255Y-4114603D01*
X27448254Y-4114606D01*
X27402402Y-4272426D01*
X27402401Y-4272432D01*
X27399500Y-4309304D01*
X27399500Y-4839064D01*
X27399110Y-4846002D01*
X27394435Y-4887500D01*
X27399110Y-4928996D01*
X27399500Y-4935935D01*
X27399500Y-5465696D01*
X27402401Y-5502567D01*
X27402402Y-5502573D01*
X27448254Y-5660393D01*
X27448255Y-5660396D01*
X27448256Y-5660398D01*
X27476221Y-5707685D01*
X27531917Y-5801862D01*
X27531923Y-5801870D01*
X27648129Y-5918076D01*
X27648133Y-5918079D01*
X27648135Y-5918081D01*
X27789602Y-6001744D01*
X27831224Y-6013836D01*
X27947426Y-6047597D01*
X27947429Y-6047597D01*
X27947431Y-6047598D01*
X27959722Y-6048565D01*
X27984304Y-6050500D01*
X27984306Y-6050500D01*
X28415696Y-6050500D01*
X28434131Y-6049049D01*
X28452569Y-6047598D01*
X28452571Y-6047597D01*
X28452573Y-6047597D01*
X28494191Y-6035505D01*
X28610398Y-6001744D01*
X28751865Y-5918081D01*
X28868081Y-5801865D01*
X28899416Y-5748879D01*
X28950486Y-5701195D01*
X29006149Y-5688000D01*
X29942948Y-5688000D01*
X30009987Y-5707685D01*
X30030628Y-5724318D01*
X30126650Y-5820340D01*
X30273484Y-5910908D01*
X30437247Y-5965174D01*
X30538323Y-5975500D01*
X31136676Y-5975499D01*
X31136684Y-5975498D01*
X31136687Y-5975498D01*
X31204400Y-5968581D01*
X31237753Y-5965174D01*
X31401516Y-5910908D01*
X31548350Y-5820340D01*
X31650318Y-5718371D01*
X31711642Y-5684886D01*
X31781334Y-5689870D01*
X31837267Y-5731742D01*
X31861684Y-5797206D01*
X31862000Y-5806052D01*
X31862000Y-8853815D01*
X31842315Y-8920854D01*
X31789511Y-8966609D01*
X31720353Y-8976553D01*
X31697047Y-8970857D01*
X31679258Y-8964632D01*
X31637763Y-8959955D01*
X31630908Y-8958791D01*
X31590200Y-8949501D01*
X31590196Y-8949500D01*
X31590194Y-8949500D01*
X31590191Y-8949500D01*
X25586469Y-8949500D01*
X25519430Y-8929815D01*
X25482660Y-8893321D01*
X25438166Y-8825217D01*
X25416557Y-8801744D01*
X25269744Y-8642262D01*
X25073509Y-8489526D01*
X25073507Y-8489525D01*
X25073506Y-8489524D01*
X24854811Y-8371172D01*
X24854802Y-8371169D01*
X24619616Y-8290429D01*
X24374335Y-8249500D01*
X24125665Y-8249500D01*
X23880383Y-8290429D01*
X23645197Y-8371169D01*
X23645188Y-8371172D01*
X23426493Y-8489524D01*
X23230257Y-8642261D01*
X23061833Y-8825217D01*
X22925826Y-9033393D01*
X22825936Y-9261118D01*
X22764892Y-9502175D01*
X22764890Y-9502187D01*
X22744357Y-9749994D01*
X22744357Y-9750005D01*
X22764890Y-9997812D01*
X22764892Y-9997824D01*
X22825936Y-10238881D01*
X22925826Y-10466606D01*
X23061833Y-10674782D01*
X23061836Y-10674785D01*
X23230256Y-10857738D01*
X23426491Y-11010474D01*
X23645190Y-11128828D01*
X23880386Y-11209571D01*
X24125665Y-11250500D01*
X24374335Y-11250500D01*
X24619614Y-11209571D01*
X24854810Y-11128828D01*
X25073509Y-11010474D01*
X25269744Y-10857738D01*
X25438164Y-10674785D01*
X25482659Y-10606679D01*
X25535806Y-10561322D01*
X25586469Y-10550500D01*
X31117060Y-10550500D01*
X31184099Y-10570185D01*
X31204741Y-10586819D01*
X34048181Y-13430258D01*
X34081666Y-13491581D01*
X34084500Y-13517939D01*
X34084500Y-20403059D01*
X34064815Y-20470098D01*
X34012011Y-20515853D01*
X33942853Y-20525797D01*
X33879297Y-20496772D01*
X33872819Y-20490740D01*
X32534252Y-19152174D01*
X32502262Y-19120184D01*
X32502259Y-19120182D01*
X32466904Y-19097966D01*
X32461229Y-19093940D01*
X32428589Y-19067910D01*
X32390959Y-19049787D01*
X32384872Y-19046422D01*
X32349525Y-19024212D01*
X32310114Y-19010421D01*
X32303688Y-19007759D01*
X32266061Y-18989639D01*
X32225345Y-18980345D01*
X32218662Y-18978420D01*
X32179259Y-18964632D01*
X32137763Y-18959955D01*
X32130908Y-18958791D01*
X32090200Y-18949501D01*
X32090196Y-18949500D01*
X32090194Y-18949500D01*
X32090191Y-18949500D01*
X25586469Y-18949500D01*
X25519430Y-18929815D01*
X25482660Y-18893321D01*
X25438166Y-18825217D01*
X25416557Y-18801744D01*
X25269744Y-18642262D01*
X25073509Y-18489526D01*
X25073507Y-18489525D01*
X25073506Y-18489524D01*
X24854811Y-18371172D01*
X24854802Y-18371169D01*
X24619616Y-18290429D01*
X24374335Y-18249500D01*
X24125665Y-18249500D01*
X23880383Y-18290429D01*
X23645197Y-18371169D01*
X23645188Y-18371172D01*
X23426493Y-18489524D01*
X23230257Y-18642261D01*
X23061833Y-18825217D01*
X22925826Y-19033393D01*
X22825936Y-19261118D01*
X22764892Y-19502175D01*
X22764890Y-19502187D01*
X22744357Y-19749994D01*
X22744357Y-19750005D01*
X22764890Y-19997812D01*
X22764892Y-19997824D01*
X22825936Y-20238881D01*
X22925826Y-20466606D01*
X23061833Y-20674782D01*
X23061836Y-20674785D01*
X23230256Y-20857738D01*
X23426491Y-21010474D01*
X23645190Y-21128828D01*
X23880386Y-21209571D01*
X24125665Y-21250500D01*
X24374335Y-21250500D01*
X24619614Y-21209571D01*
X24854810Y-21128828D01*
X25073509Y-21010474D01*
X25269744Y-20857738D01*
X25438164Y-20674785D01*
X25482659Y-20606679D01*
X25535806Y-20561322D01*
X25586469Y-20550500D01*
X31617060Y-20550500D01*
X31684099Y-20570185D01*
X31704741Y-20586819D01*
X32778181Y-21660259D01*
X32811666Y-21721582D01*
X32814500Y-21747940D01*
X32814500Y-22950273D01*
X32794815Y-23017312D01*
X32742011Y-23063067D01*
X32672853Y-23073011D01*
X32655906Y-23069350D01*
X32597567Y-23052401D01*
X32560696Y-23049500D01*
X32560694Y-23049500D01*
X32129306Y-23049500D01*
X32129304Y-23049500D01*
X32092432Y-23052401D01*
X32092426Y-23052402D01*
X31934606Y-23098254D01*
X31934603Y-23098255D01*
X31793137Y-23181917D01*
X31793129Y-23181923D01*
X31676923Y-23298129D01*
X31676917Y-23298137D01*
X31593255Y-23439603D01*
X31593254Y-23439606D01*
X31547400Y-23597433D01*
X31547337Y-23597783D01*
X31547247Y-23597960D01*
X31545634Y-23603515D01*
X31544602Y-23603215D01*
X31515926Y-23660194D01*
X31455760Y-23695715D01*
X31425356Y-23699500D01*
X31328182Y-23699500D01*
X31263085Y-23681039D01*
X31260851Y-23679661D01*
X31260850Y-23679660D01*
X31153145Y-23613227D01*
X31114018Y-23589093D01*
X31114013Y-23589091D01*
X31112569Y-23588612D01*
X30950253Y-23534826D01*
X30950251Y-23534825D01*
X30849178Y-23524500D01*
X30150830Y-23524500D01*
X30150812Y-23524501D01*
X30049747Y-23534825D01*
X29885984Y-23589092D01*
X29885981Y-23589093D01*
X29739148Y-23679661D01*
X29724825Y-23693984D01*
X29663501Y-23727468D01*
X29593809Y-23722482D01*
X29549465Y-23693982D01*
X29535538Y-23680055D01*
X29535534Y-23680052D01*
X29388811Y-23589551D01*
X29388800Y-23589546D01*
X29225152Y-23535319D01*
X29124154Y-23525000D01*
X29025000Y-23525000D01*
X29025000Y-24626000D01*
X29005315Y-24693039D01*
X28952511Y-24738794D01*
X28901000Y-24750000D01*
X27737501Y-24750000D01*
X27737501Y-24786654D01*
X27747819Y-24887652D01*
X27802046Y-25051300D01*
X27802051Y-25051311D01*
X27892552Y-25198034D01*
X27892555Y-25198038D01*
X28014461Y-25319944D01*
X28014465Y-25319947D01*
X28161188Y-25410448D01*
X28161199Y-25410453D01*
X28304064Y-25457794D01*
X28361509Y-25497567D01*
X28388332Y-25562082D01*
X28376017Y-25630858D01*
X28328474Y-25682058D01*
X28265060Y-25699500D01*
X25191032Y-25699500D01*
X25123993Y-25679815D01*
X25078238Y-25627011D01*
X25068294Y-25557853D01*
X25097319Y-25494297D01*
X25114870Y-25477647D01*
X25120056Y-25473610D01*
X25120056Y-25473609D01*
X24543165Y-24896718D01*
X24509680Y-24835395D01*
X24514664Y-24765703D01*
X24552588Y-24712853D01*
X24655739Y-24628934D01*
X24706052Y-24557655D01*
X24760793Y-24514239D01*
X24830318Y-24507310D01*
X24892553Y-24539068D01*
X24895037Y-24541484D01*
X25473434Y-25119882D01*
X25573731Y-24966369D01*
X25673587Y-24738717D01*
X25734612Y-24497738D01*
X25734614Y-24497729D01*
X25755141Y-24250000D01*
X27737500Y-24250000D01*
X28525000Y-24250000D01*
X28525000Y-23524999D01*
X28425860Y-23525000D01*
X28425844Y-23525001D01*
X28324847Y-23535319D01*
X28161199Y-23589546D01*
X28161188Y-23589551D01*
X28014465Y-23680052D01*
X28014461Y-23680055D01*
X27892555Y-23801961D01*
X27892552Y-23801965D01*
X27802051Y-23948688D01*
X27802046Y-23948699D01*
X27747819Y-24112347D01*
X27737500Y-24213345D01*
X27737500Y-24250000D01*
X25755141Y-24250000D01*
X25755141Y-24249994D01*
X25734614Y-24002270D01*
X25734612Y-24002261D01*
X25673587Y-23761282D01*
X25573731Y-23533630D01*
X25473434Y-23380116D01*
X24898517Y-23955034D01*
X24837194Y-23988519D01*
X24767502Y-23983535D01*
X24711569Y-23941663D01*
X24708486Y-23936750D01*
X24708451Y-23936775D01*
X24703558Y-23929843D01*
X24648661Y-23871064D01*
X24600362Y-23819348D01*
X24571777Y-23801965D01*
X24565300Y-23798026D01*
X24518248Y-23746374D01*
X24506591Y-23677484D01*
X24534029Y-23613227D01*
X24542048Y-23604397D01*
X25120056Y-23026389D01*
X25073229Y-22989943D01*
X24854614Y-22871635D01*
X24854603Y-22871630D01*
X24619493Y-22790916D01*
X24374293Y-22750000D01*
X24125707Y-22750000D01*
X23880506Y-22790916D01*
X23645396Y-22871630D01*
X23645390Y-22871632D01*
X23426761Y-22989949D01*
X23379942Y-23026388D01*
X23379942Y-23026390D01*
X23956833Y-23603280D01*
X23990318Y-23664603D01*
X23985334Y-23734294D01*
X23947408Y-23787148D01*
X23844262Y-23871064D01*
X23844258Y-23871069D01*
X23793947Y-23942343D01*
X23739204Y-23985760D01*
X23669679Y-23992689D01*
X23607444Y-23960930D01*
X23604962Y-23958515D01*
X23026564Y-23380116D01*
X22926267Y-23533632D01*
X22826412Y-23761282D01*
X22765387Y-24002261D01*
X22765385Y-24002270D01*
X22744859Y-24249994D01*
X22744859Y-24250000D01*
X22765385Y-24497729D01*
X22765387Y-24497738D01*
X22826412Y-24738717D01*
X22926266Y-24966364D01*
X23026564Y-25119882D01*
X23601482Y-24544964D01*
X23662805Y-24511479D01*
X23732496Y-24516463D01*
X23788430Y-24558334D01*
X23791514Y-24563249D01*
X23791549Y-24563225D01*
X23796441Y-24570156D01*
X23878173Y-24657669D01*
X23899638Y-24680652D01*
X23934698Y-24701973D01*
X23981749Y-24753623D01*
X23993407Y-24822513D01*
X23965970Y-24886770D01*
X23957950Y-24895601D01*
X23379942Y-25473609D01*
X23385128Y-25477646D01*
X23425941Y-25534357D01*
X23429616Y-25604130D01*
X23394985Y-25664813D01*
X23333043Y-25697140D01*
X23308966Y-25699500D01*
X21924500Y-25699500D01*
X21857461Y-25679815D01*
X21811706Y-25627011D01*
X21800500Y-25575500D01*
X21800500Y-14250005D01*
X22744859Y-14250005D01*
X22765385Y-14497729D01*
X22765387Y-14497738D01*
X22826412Y-14738717D01*
X22926266Y-14966364D01*
X23026564Y-15119882D01*
X23601482Y-14544964D01*
X23662805Y-14511479D01*
X23732496Y-14516463D01*
X23788430Y-14558334D01*
X23791514Y-14563249D01*
X23791549Y-14563225D01*
X23796441Y-14570156D01*
X23899637Y-14680651D01*
X23899638Y-14680652D01*
X23934698Y-14701973D01*
X23981749Y-14753623D01*
X23993407Y-14822513D01*
X23965970Y-14886770D01*
X23957950Y-14895601D01*
X23379942Y-15473609D01*
X23426768Y-15510055D01*
X23426770Y-15510056D01*
X23645385Y-15628364D01*
X23645396Y-15628369D01*
X23880506Y-15709083D01*
X24125707Y-15750000D01*
X24374293Y-15750000D01*
X24619493Y-15709083D01*
X24854603Y-15628369D01*
X24854614Y-15628364D01*
X25073228Y-15510057D01*
X25073231Y-15510055D01*
X25120056Y-15473609D01*
X24543165Y-14896718D01*
X24509680Y-14835395D01*
X24514664Y-14765703D01*
X24552588Y-14712853D01*
X24655739Y-14628934D01*
X24706052Y-14557655D01*
X24760793Y-14514239D01*
X24830318Y-14507310D01*
X24892553Y-14539068D01*
X24895037Y-14541484D01*
X25473434Y-15119882D01*
X25573731Y-14966369D01*
X25673587Y-14738717D01*
X25734612Y-14497738D01*
X25734614Y-14497729D01*
X25755141Y-14250005D01*
X25755141Y-14249994D01*
X25734614Y-14002270D01*
X25734612Y-14002261D01*
X25673587Y-13761282D01*
X25573731Y-13533630D01*
X25473434Y-13380116D01*
X24898517Y-13955034D01*
X24837194Y-13988519D01*
X24767502Y-13983535D01*
X24711569Y-13941663D01*
X24708486Y-13936750D01*
X24708451Y-13936775D01*
X24703558Y-13929843D01*
X24648661Y-13871064D01*
X24600362Y-13819348D01*
X24565300Y-13798026D01*
X24518248Y-13746374D01*
X24506591Y-13677484D01*
X24534029Y-13613227D01*
X24542048Y-13604397D01*
X25120056Y-13026389D01*
X25073229Y-12989943D01*
X24854614Y-12871635D01*
X24854603Y-12871630D01*
X24619493Y-12790916D01*
X24374293Y-12750000D01*
X24125707Y-12750000D01*
X23880506Y-12790916D01*
X23645396Y-12871630D01*
X23645390Y-12871632D01*
X23426761Y-12989949D01*
X23379942Y-13026388D01*
X23379942Y-13026390D01*
X23956833Y-13603280D01*
X23990318Y-13664603D01*
X23985334Y-13734294D01*
X23947408Y-13787148D01*
X23844262Y-13871064D01*
X23844258Y-13871069D01*
X23793947Y-13942343D01*
X23739204Y-13985760D01*
X23669679Y-13992689D01*
X23607444Y-13960930D01*
X23604962Y-13958515D01*
X23026564Y-13380116D01*
X22926267Y-13533632D01*
X22826412Y-13761282D01*
X22765387Y-14002261D01*
X22765385Y-14002270D01*
X22744859Y-14249994D01*
X22744859Y-14250005D01*
X21800500Y-14250005D01*
X21800500Y-6909807D01*
X21800500Y-6909806D01*
X21791207Y-6869093D01*
X21790042Y-6862233D01*
X21785368Y-6820745D01*
X21781210Y-6808862D01*
X21771576Y-6781328D01*
X21769653Y-6774655D01*
X21760360Y-6733939D01*
X21749872Y-6712161D01*
X21742239Y-6696310D01*
X21739576Y-6689881D01*
X21725789Y-6650478D01*
X21725787Y-6650475D01*
X21725787Y-6650474D01*
X21720233Y-6641637D01*
X21703569Y-6615116D01*
X21700218Y-6609054D01*
X21682092Y-6571413D01*
X21656048Y-6538755D01*
X21652032Y-6533095D01*
X21629816Y-6497738D01*
X21519703Y-6387625D01*
X21519701Y-6387622D01*
X21133360Y-6001281D01*
X20714192Y-5582114D01*
X20714191Y-5582112D01*
X20696752Y-5564673D01*
X20664762Y-5532684D01*
X20664759Y-5532682D01*
X20664758Y-5532681D01*
X20629404Y-5510466D01*
X20623729Y-5506440D01*
X20591089Y-5480410D01*
X20553459Y-5462287D01*
X20547372Y-5458922D01*
X20512025Y-5436712D01*
X20472614Y-5422921D01*
X20466188Y-5420259D01*
X20428561Y-5402139D01*
X20387845Y-5392845D01*
X20381162Y-5390920D01*
X20341759Y-5377132D01*
X20300263Y-5372455D01*
X20293408Y-5371291D01*
X20252700Y-5362001D01*
X20252696Y-5362000D01*
X20252694Y-5362000D01*
X20252691Y-5362000D01*
X16556052Y-5362000D01*
X16489013Y-5342315D01*
X16443258Y-5289511D01*
X16433314Y-5220353D01*
X16462339Y-5156797D01*
X16468371Y-5150319D01*
X16481190Y-5137500D01*
X25500000Y-5137500D01*
X25500000Y-5465644D01*
X25502899Y-5502489D01*
X25502900Y-5502495D01*
X25548716Y-5660193D01*
X25548717Y-5660196D01*
X25632314Y-5801552D01*
X25632321Y-5801561D01*
X25748438Y-5917678D01*
X25748447Y-5917685D01*
X25889801Y-6001281D01*
X26047514Y-6047100D01*
X26047511Y-6047100D01*
X26049998Y-6047295D01*
X26050000Y-6047294D01*
X26050000Y-5137500D01*
X26550000Y-5137500D01*
X26550000Y-6047295D01*
X26550001Y-6047295D01*
X26552486Y-6047100D01*
X26710198Y-6001281D01*
X26851552Y-5917685D01*
X26851561Y-5917678D01*
X26967678Y-5801561D01*
X26967685Y-5801552D01*
X27051282Y-5660196D01*
X27051283Y-5660193D01*
X27097099Y-5502495D01*
X27097100Y-5502489D01*
X27100000Y-5465644D01*
X27100000Y-5137500D01*
X26550000Y-5137500D01*
X26050000Y-5137500D01*
X25500000Y-5137500D01*
X16481190Y-5137500D01*
X16570340Y-5048350D01*
X16660908Y-4901516D01*
X16715174Y-4737753D01*
X16725416Y-4637500D01*
X25500000Y-4637500D01*
X26050000Y-4637500D01*
X26050000Y-3727703D01*
X26047503Y-3727900D01*
X25889806Y-3773716D01*
X25889803Y-3773717D01*
X25748447Y-3857314D01*
X25748438Y-3857321D01*
X25632321Y-3973438D01*
X25632314Y-3973447D01*
X25548717Y-4114803D01*
X25548716Y-4114806D01*
X25502900Y-4272504D01*
X25502899Y-4272510D01*
X25500000Y-4309356D01*
X25500000Y-4637500D01*
X16725416Y-4637500D01*
X16725500Y-4636677D01*
X16725499Y-4545438D01*
X16745183Y-4478401D01*
X16761813Y-4457763D01*
X17907758Y-3311819D01*
X17969082Y-3278334D01*
X17995440Y-3275500D01*
X18517982Y-3275500D01*
X18585021Y-3295185D01*
G37*
%TD.AperFunction*%
%TD*%
M02*
